<?xml version="1.0" encoding="UTF-8" standalone="no"?>
<!-- Created with Inkscape (http://www.inkscape.org/) -->

<svg
   xmlns:dc="http://purl.org/dc/elements/1.1/"
   xmlns:cc="http://creativecommons.org/ns#"
   xmlns:rdf="http://www.w3.org/1999/02/22-rdf-syntax-ns#"
   xmlns:svg="http://www.w3.org/2000/svg"
   xmlns="http://www.w3.org/2000/svg"
   xmlns:sodipodi="http://sodipodi.sourceforge.net/DTD/sodipodi-0.dtd"
   xmlns:inkscape="http://www.inkscape.org/namespaces/inkscape"
   width="538.5827"
   height="386.22046"
   id="svg2"
   version="1.1"
   inkscape:version="0.48.4 r9939"
   sodipodi:docname="postcard_motto_7_2_path.svg"
   inkscape:export-filename="/home/svet/Dropbox/falanster/design/postcards/for_falanster/postcard_motto_7_1.png"
   inkscape:export-xdpi="90"
   inkscape:export-ydpi="90">
  <defs
     id="defs4" />
  <sodipodi:namedview
     id="base"
     pagecolor="#ffffff"
     bordercolor="#666666"
     borderopacity="1.0"
     inkscape:pageopacity="0.0"
     inkscape:pageshadow="2"
     inkscape:zoom="1.4"
     inkscape:cx="329.01679"
     inkscape:cy="192.40582"
     inkscape:document-units="px"
     inkscape:current-layer="layer1"
     showgrid="false"
     inkscape:window-width="1301"
     inkscape:window-height="744"
     inkscape:window-x="65"
     inkscape:window-y="24"
     inkscape:window-maximized="1"
     showguides="true"
     inkscape:guide-bbox="true"
     fit-margin-top="0"
     fit-margin-left="0"
     fit-margin-right="0"
     fit-margin-bottom="0">
    <sodipodi:guide
       orientation="0,1"
       position="287.81226,24.162411"
       id="guide2999" />
    <sodipodi:guide
       orientation="1,0"
       position="34.263966,445.39602"
       id="guide3001" />
    <sodipodi:guide
       orientation="1,0"
       position="505.14286,405.14283"
       id="guide3003" />
    <sodipodi:guide
       orientation="0,1"
       position="330.14286,118.71426"
       id="guide3005" />
    <sodipodi:guide
       orientation="0,1"
       position="211.92455,181.11486"
       id="guide3114" />
    <sodipodi:guide
       orientation="0,1"
       position="212.42962,222.53112"
       id="guide3116" />
    <sodipodi:guide
       orientation="1,0"
       position="204.47467,215.83886"
       id="guide3118" />
  </sodipodi:namedview>
  <metadata
     id="metadata7">
    <rdf:RDF>
      <cc:Work
         rdf:about="">
        <dc:format>image/svg+xml</dc:format>
        <dc:type
           rdf:resource="http://purl.org/dc/dcmitype/StillImage" />
        <dc:title></dc:title>
      </cc:Work>
    </rdf:RDF>
  </metadata>
  <g
     inkscape:label="Layer 1"
     inkscape:groupmode="layer"
     id="layer1"
     transform="translate(8,-674.14166)">
    <rect
       style="fill:#1a1a1a;fill-opacity:1;fill-rule:nonzero;stroke:none"
       id="rect2985"
       width="538.5827"
       height="386.22046"
       x="-8"
       y="674.14166" />
    <g
       style="font-size:19.67246628px;font-style:normal;font-variant:normal;font-weight:normal;font-stretch:normal;line-height:125%;letter-spacing:0px;word-spacing:0px;fill:#666666;fill-opacity:1;stroke:none;font-family:Ubuntu;-inkscape-font-specification:Ubuntu"
       id="text2995-3">
      <path
         d="m 398.03317,1018.6796 c 0.54137,10e-5 1.00353,0.04 1.38647,0.1189 0.39613,0.079 0.67342,0.1519 0.83188,0.2179 l -0.33671,1.5845 c -0.15846,-0.079 -0.38294,-0.1518 -0.67343,-0.2179 -0.29051,-0.079 -0.64703,-0.1188 -1.06957,-0.1188 -0.85829,0 -1.4591,0.2377 -1.80241,0.713 -0.34332,0.4622 -0.51498,1.0894 -0.51498,1.8817 l 0,0.8913 3.96135,0 0,1.5449 -3.96135,0 0,8.7546 -1.84202,0 0,-11.2304 c -1e-5,-1.3205 0.3235,-2.3372 0.97053,-3.0503 0.64701,-0.7262 1.66376,-1.0893 3.05024,-1.0894"
         style="font-size:19.80674744px;fill:#666666"
         id="path3130"
         inkscape:connector-curvature="0" />
      <path
         d="m 405.15802,1032.7226 c 0.43575,0 0.81868,-0.01 1.1488,-0.02 0.34331,-0.026 0.6272,-0.066 0.85169,-0.1188 l 0,-3.0701 c -0.13206,-0.066 -0.34993,-0.1188 -0.65363,-0.1584 -0.2905,-0.053 -0.64702,-0.079 -1.06956,-0.079 -0.2773,0 -0.5744,0.02 -0.8913,0.059 -0.30371,0.04 -0.58761,0.1254 -0.85169,0.2575 -0.25089,0.1188 -0.46217,0.2905 -0.63382,0.5149 -0.17166,0.2113 -0.25749,0.4952 -0.25749,0.8517 0,0.6603 0.21127,1.1224 0.63382,1.3865 0.42254,0.2509 0.99693,0.3763 1.72318,0.3763 m -0.15845,-9.2299 c 0.73945,0 1.36006,0.099 1.86183,0.2971 0.51497,0.1849 0.92431,0.4556 1.22802,0.8121 0.3169,0.3433 0.54138,0.7592 0.67343,1.2478 0.13204,0.4754 0.19806,1.0035 0.19807,1.5845 l 0,6.4372 c -0.15846,0.026 -0.38294,0.066 -0.67343,0.1189 -0.2773,0.04 -0.59421,0.079 -0.95072,0.1188 -0.35653,0.04 -0.74606,0.073 -1.1686,0.099 -0.40935,0.04 -0.81869,0.059 -1.22802,0.059 -0.581,0 -1.11578,-0.059 -1.60435,-0.1783 -0.48857,-0.1188 -0.91111,-0.3037 -1.26763,-0.5546 -0.35652,-0.2641 -0.63382,-0.6074 -0.83188,-1.0299 -0.19807,-0.4226 -0.2971,-0.931 -0.2971,-1.5252 0,-0.5678 0.11223,-1.0563 0.33671,-1.4657 0.23768,-0.4093 0.55459,-0.7394 0.95073,-0.9903 0.39613,-0.2509 0.85829,-0.4357 1.38647,-0.5546 0.52817,-0.1188 1.08276,-0.1782 1.66377,-0.1782 0.18485,0 0.37632,0.013 0.57439,0.04 0.19806,0.013 0.38293,0.04 0.55459,0.079 0.18486,0.026 0.34331,0.053 0.47536,0.079 0.13204,0.026 0.22447,0.046 0.2773,0.059 l 0,-0.5149 c -10e-6,-0.3037 -0.033,-0.6008 -0.099,-0.8913 -0.066,-0.3037 -0.18487,-0.5678 -0.35652,-0.7923 -0.17166,-0.2377 -0.40934,-0.4225 -0.71304,-0.5546 -0.29051,-0.1452 -0.67344,-0.2179 -1.14879,-0.2179 -0.60741,0 -1.1422,0.046 -1.60435,0.1387 -0.44896,0.079 -0.78567,0.165 -1.01014,0.2575 l -0.21788,-1.5252 c 0.23768,-0.1056 0.63382,-0.2046 1.18841,-0.2971 0.55458,-0.1056 1.15539,-0.1584 1.80241,-0.1584"
         style="font-size:19.80674744px;fill:#666666"
         id="path3132"
         inkscape:connector-curvature="0" />
      <path
         d="m 415.0908,1034.2478 c -1.13559,-0.027 -1.94106,-0.2707 -2.41642,-0.7329 -0.47537,-0.4622 -0.71305,-1.1818 -0.71305,-2.1589 l 0,-12.3594 1.84203,-0.317 0,12.3793 c 0,0.3037 0.0264,0.5546 0.0792,0.7526 0.0528,0.1981 0.13864,0.3565 0.25749,0.4754 0.11883,0.1188 0.27729,0.2113 0.47536,0.2773 0.19806,0.053 0.44234,0.099 0.73285,0.1386 l -0.25749,1.545"
         style="font-size:19.80674744px;fill:#666666"
         id="path3134"
         inkscape:connector-curvature="0" />
      <path
         d="m 420.90284,1032.7226 c 0.43574,0 0.81867,-0.01 1.14879,-0.02 0.34331,-0.026 0.62721,-0.066 0.85169,-0.1188 l 0,-3.0701 c -0.13205,-0.066 -0.34992,-0.1188 -0.65362,-0.1584 -0.29051,-0.053 -0.64703,-0.079 -1.06956,-0.079 -0.2773,0 -0.57441,0.02 -0.89131,0.059 -0.30371,0.04 -0.5876,0.1254 -0.85169,0.2575 -0.25089,0.1188 -0.46216,0.2905 -0.63381,0.5149 -0.17167,0.2113 -0.25749,0.4952 -0.25749,0.8517 0,0.6603 0.21127,1.1224 0.63381,1.3865 0.42254,0.2509 0.99694,0.3763 1.72319,0.3763 m -0.15845,-9.2299 c 0.73944,0 1.36005,0.099 1.86183,0.2971 0.51497,0.1849 0.92431,0.4556 1.22802,0.8121 0.3169,0.3433 0.54138,0.7592 0.67343,1.2478 0.13204,0.4754 0.19806,1.0035 0.19807,1.5845 l 0,6.4372 c -0.15847,0.026 -0.38294,0.066 -0.67343,0.1189 -0.27731,0.04 -0.59421,0.079 -0.95073,0.1188 -0.35653,0.04 -0.74606,0.073 -1.16859,0.099 -0.40935,0.04 -0.81869,0.059 -1.22802,0.059 -0.58101,0 -1.11579,-0.059 -1.60435,-0.1783 -0.48857,-0.1188 -0.91111,-0.3037 -1.26763,-0.5546 -0.35652,-0.2641 -0.63382,-0.6074 -0.83189,-1.0299 -0.19806,-0.4226 -0.2971,-0.931 -0.2971,-1.5252 0,-0.5678 0.11224,-1.0563 0.33672,-1.4657 0.23768,-0.4093 0.55459,-0.7394 0.95072,-0.9903 0.39613,-0.2509 0.85829,-0.4357 1.38647,-0.5546 0.52818,-0.1188 1.08277,-0.1782 1.66377,-0.1782 0.18486,0 0.37632,0.013 0.5744,0.04 0.19806,0.013 0.38292,0.04 0.55459,0.079 0.18485,0.026 0.34331,0.053 0.47536,0.079 0.13204,0.026 0.22447,0.046 0.27729,0.059 l 0,-0.5149 c 0,-0.3037 -0.033,-0.6008 -0.099,-0.8913 -0.066,-0.3037 -0.18487,-0.5678 -0.35652,-0.7923 -0.17167,-0.2377 -0.40935,-0.4225 -0.71305,-0.5546 -0.2905,-0.1452 -0.67343,-0.2179 -1.14879,-0.2179 -0.60741,0 -1.14219,0.046 -1.60434,0.1387 -0.44896,0.079 -0.78567,0.165 -1.01015,0.2575 l -0.21787,-1.5252 c 0.23768,-0.1056 0.63381,-0.2046 1.1884,-0.2971 0.55459,-0.1056 1.15539,-0.1584 1.80242,-0.1584"
         style="font-size:19.80674744px;fill:#666666"
         id="path3136"
         inkscape:connector-curvature="0" />
      <path
         d="m 427.74576,1024.0473 c 0.42255,-0.1057 0.98374,-0.2179 1.68358,-0.3367 0.69983,-0.1189 1.50531,-0.1783 2.41642,-0.1783 0.81867,0 1.4987,0.1189 2.0401,0.3565 0.54137,0.2245 0.97052,0.548 1.28743,0.9706 0.33011,0.4093 0.56119,0.9045 0.69324,1.4855 0.13204,0.581 0.19806,1.2214 0.19807,1.9212 l 0,5.7836 -1.84203,0 0,-5.3875 c -1e-5,-0.6338 -0.0462,-1.1751 -0.13865,-1.6241 -0.0792,-0.449 -0.21788,-0.8121 -0.41594,-1.0894 -0.19807,-0.2773 -0.46216,-0.4753 -0.79227,-0.5942 -0.33012,-0.132 -0.73946,-0.198 -1.22802,-0.198 -0.19807,0 -0.40274,0.01 -0.61401,0.02 -0.21127,0.013 -0.41594,0.033 -0.614,0.059 -0.18487,0.013 -0.35653,0.033 -0.51498,0.059 -0.14525,0.026 -0.25089,0.046 -0.31691,0.059 l 0,8.6952 -1.84203,0 0,-10.0024"
         style="font-size:19.80674744px;fill:#666666"
         id="path3138"
         inkscape:connector-curvature="0" />
      <path
         d="m 441.51579,1032.7226 c 0.75265,0 1.30724,-0.099 1.66376,-0.2971 0.36972,-0.198 0.55459,-0.5149 0.55459,-0.9507 0,-0.4489 -0.17826,-0.8055 -0.53478,-1.0696 -0.35653,-0.264 -0.94413,-0.5611 -1.7628,-0.8913 -0.39614,-0.1584 -0.77907,-0.3169 -1.14879,-0.4753 -0.35653,-0.1717 -0.66683,-0.3697 -0.93092,-0.5942 -0.26409,-0.2245 -0.47536,-0.4952 -0.63382,-0.8121 -0.15845,-0.3169 -0.23768,-0.7064 -0.23768,-1.1686 0,-0.9111 0.33672,-1.6307 1.01015,-2.1589 0.67342,-0.5414 1.59114,-0.8121 2.75314,-0.8121 0.29049,0 0.58099,0.02 0.87149,0.059 0.2905,0.026 0.56119,0.066 0.81208,0.1188 0.25088,0.04 0.46875,0.086 0.65362,0.1387 0.19806,0.053 0.34991,0.099 0.45556,0.1386 l -0.33672,1.5846 c -0.19807,-0.1056 -0.50838,-0.2113 -0.93091,-0.3169 -0.42255,-0.1189 -0.93093,-0.1783 -1.52512,-0.1783 -0.51498,0 -0.96394,0.1057 -1.34686,0.3169 -0.38294,0.1981 -0.5744,0.515 -0.5744,0.9507 0,0.2245 0.0396,0.4226 0.11884,0.5942 0.0924,0.1717 0.22448,0.3302 0.39614,0.4754 0.18486,0.1321 0.40933,0.2575 0.67343,0.3763 0.26408,0.1189 0.58099,0.2443 0.95072,0.3764 0.48856,0.1848 0.92431,0.3697 1.30725,0.5546 0.38292,0.1716 0.70643,0.3763 0.97053,0.614 0.27728,0.2376 0.48855,0.5281 0.63381,0.8715 0.14524,0.3301 0.21787,0.7394 0.21788,1.228 -10e-6,0.9507 -0.35653,1.6703 -1.06957,2.1589 -0.69984,0.4886 -1.70338,0.7329 -3.01062,0.7329 -0.91112,0 -1.62416,-0.079 -2.13913,-0.2377 -0.51498,-0.1453 -0.8649,-0.2575 -1.04976,-0.3367 l 0.33671,-1.5846 c 0.21128,0.079 0.54799,0.1981 1.01015,0.3565 0.46215,0.1585 1.07616,0.2377 1.84203,0.2377"
         style="font-size:19.80674744px;fill:#666666"
         id="path3140"
         inkscape:connector-curvature="0" />
      <path
         d="m 449.66255,1023.7502 3.90193,0 0,1.5449 -3.90193,0 0,4.7536 c -1e-5,0.515 0.0396,0.9441 0.11884,1.2875 0.0792,0.3301 0.19806,0.5942 0.35652,0.7922 0.15845,0.1849 0.35652,0.3169 0.5942,0.3962 0.23768,0.079 0.51497,0.1188 0.83188,0.1188 0.55459,0 0.99694,-0.059 1.32706,-0.1783 0.34331,-0.132 0.58099,-0.2244 0.71304,-0.2773 l 0.35652,1.5252 c -0.18487,0.092 -0.50838,0.2046 -0.97053,0.3367 -0.46216,0.1452 -0.99034,0.2179 -1.58454,0.2179 -0.69984,0 -1.28084,-0.086 -1.74299,-0.2575 -0.44896,-0.1849 -0.81208,-0.4556 -1.08937,-0.8121 -0.2773,-0.3565 -0.47537,-0.7923 -0.59421,-1.3073 -0.10563,-0.5281 -0.15845,-1.1355 -0.15845,-1.8222 l 0,-9.1903 1.84203,-0.3169 0,3.1889"
         style="font-size:19.80674744px;fill:#666666"
         id="path3142"
         inkscape:connector-curvature="0" />
      <path
         d="m 455.14066,1028.9197 c 0,-0.9111 0.13204,-1.7033 0.39614,-2.3768 0.26408,-0.6866 0.614,-1.2544 1.04975,-1.7034 0.43575,-0.4489 0.93752,-0.7856 1.50532,-1.0101 0.56778,-0.2245 1.14878,-0.3367 1.74299,-0.3367 1.38646,0 2.44943,0.4357 3.18889,1.3072 0.73944,0.8583 1.10916,2.1722 1.10917,3.9416 -1e-5,0.079 -1e-5,0.1848 0,0.3169 -1e-5,0.1188 -0.007,0.2311 -0.0198,0.3367 l -7.05121,0 c 0.0792,1.0696 0.38953,1.8816 0.93092,2.4362 0.54138,0.5546 1.38647,0.8319 2.53527,0.8319 0.64701,0 1.18839,-0.053 1.62415,-0.1584 0.44894,-0.1189 0.78566,-0.2311 1.01014,-0.3368 l 0.25749,1.545 c -0.22448,0.1188 -0.62062,0.2443 -1.1884,0.3763 -0.5546,0.132 -1.18842,0.1981 -1.90145,0.1981 -0.89791,0 -1.67698,-0.1321 -2.3372,-0.3962 -0.64702,-0.2773 -1.1818,-0.6536 -1.60434,-1.129 -0.42255,-0.4753 -0.73946,-1.0365 -0.95073,-1.6835 -0.19807,-0.6603 -0.2971,-1.3799 -0.2971,-2.159 m 7.07101,-1.0101 c 0.0132,-0.8319 -0.19808,-1.5119 -0.63382,-2.0401 -0.42255,-0.5414 -1.01015,-0.8121 -1.7628,-0.8121 -0.42255,0 -0.79887,0.086 -1.12898,0.2575 -0.31691,0.1585 -0.58761,0.3697 -0.81208,0.6338 -0.22448,0.2641 -0.40274,0.5678 -0.53478,0.9111 -0.11884,0.3434 -0.19807,0.6933 -0.23768,1.0498 l 5.11014,0"
         style="font-size:19.80674744px;fill:#666666"
         id="path3144"
         inkscape:connector-curvature="0" />
      <path
         d="m 470.58188,1023.5323 c 0.15845,0 0.33671,0.013 0.53478,0.04 0.21127,0.013 0.41594,0.04 0.61401,0.079 0.19806,0.026 0.37632,0.059 0.53478,0.099 0.17165,0.026 0.2971,0.053 0.37633,0.079 l -0.31691,1.6043 c -0.14525,-0.053 -0.38954,-0.1122 -0.73285,-0.1782 -0.33012,-0.079 -0.75926,-0.1188 -1.28744,-0.1189 -0.34332,10e-5 -0.68663,0.04 -1.02995,0.1189 -0.33011,0.066 -0.54799,0.1122 -0.65362,0.1386 l 0,8.6556 -1.84203,0 0,-9.8638 c 0.43575,-0.1584 0.97713,-0.3037 1.62416,-0.4357 0.64701,-0.1453 1.37326,-0.2179 2.17874,-0.2179"
         style="font-size:19.80674744px;fill:#666666"
         id="path3146"
         inkscape:connector-curvature="0" />
      <path
         d="m 475.53419,1032.9801 c -1e-5,0.3565 -0.11885,0.6668 -0.35652,0.9309 -0.23769,0.2641 -0.5612,0.3962 -0.97054,0.3962 -0.40934,0 -0.73285,-0.1321 -0.97053,-0.3962 -0.23768,-0.2641 -0.35652,-0.5744 -0.35652,-0.9309 0,-0.3565 0.11884,-0.6668 0.35652,-0.9309 0.23768,-0.2641 0.56119,-0.3961 0.97053,-0.3961 0.40934,0 0.73285,0.132 0.97054,0.3961 0.23767,0.2641 0.35651,0.5744 0.35652,0.9309"
         style="font-size:19.80674744px;fill:#666666"
         id="path3148"
         inkscape:connector-curvature="0" />
      <path
         d="m 480.07179,1024.2057 c 0.22447,-0.1452 0.56118,-0.2971 1.01014,-0.4555 0.46215,-0.1585 0.99033,-0.2377 1.58454,-0.2377 0.73944,0 1.39307,0.132 1.96087,0.3961 0.58099,0.2641 1.06955,0.6339 1.4657,1.1092 0.39612,0.4754 0.69322,1.0432 0.8913,1.7034 0.21126,0.6602 0.3169,1.3865 0.31691,2.1787 -10e-6,0.8319 -0.12546,1.5846 -0.37633,2.258 -0.23769,0.6602 -0.58101,1.2214 -1.02995,1.6836 -0.44896,0.4621 -0.99035,0.8187 -1.62415,1.0695 -0.63383,0.2509 -1.34687,0.3764 -2.13913,0.3764 -0.8583,0 -1.61756,-0.059 -2.27778,-0.1783 -0.66023,-0.1188 -1.20161,-0.2377 -1.62415,-0.3565 l 0,-14.756 1.84203,-0.317 0,5.5261 m 0,8.2396 c 0.18485,0.053 0.44234,0.1057 0.77246,0.1585 0.34331,0.04 0.76585,0.059 1.26763,0.059 0.99033,0 1.7826,-0.3235 2.37681,-0.9705 0.59419,-0.6602 0.89129,-1.5912 0.8913,-2.7928 -1e-5,-0.5281 -0.0528,-1.0233 -0.15845,-1.4855 -0.10564,-0.4621 -0.2773,-0.8583 -0.51498,-1.1884 -0.23768,-0.3433 -0.54799,-0.6074 -0.93091,-0.7923 -0.36974,-0.198 -0.81869,-0.297 -1.34686,-0.2971 -0.50178,10e-5 -0.96394,0.086 -1.38647,0.2575 -0.42255,0.1717 -0.74606,0.35 -0.97053,0.5348 l 0,6.5164"
         style="font-size:19.80674744px;fill:#666666"
         id="path3150"
         inkscape:connector-curvature="0" />
      <path
         d="m 488.43364,1035.9709 c 0.14525,0.066 0.33011,0.1255 0.55459,0.1783 0.23768,0.066 0.46876,0.099 0.69324,0.099 0.72624,0 1.29403,-0.165 1.70338,-0.4951 0.40933,-0.3169 0.77906,-0.8385 1.10917,-1.5648 -0.83188,-1.5845 -1.61095,-3.2615 -2.33719,-5.0309 -0.71305,-1.7826 -1.30725,-3.585 -1.78261,-5.4072 l 1.98067,0 c 0.14525,0.5942 0.31691,1.2346 0.51498,1.9212 0.21127,0.6867 0.44235,1.3931 0.69324,2.1194 0.25088,0.7262 0.52157,1.4525 0.81207,2.1787 0.2905,0.7262 0.5942,1.4261 0.91111,2.0995 0.50177,-1.3865 0.93752,-2.7597 1.30725,-4.1198 0.36972,-1.3601 0.71964,-2.7597 1.04976,-4.199 l 1.90144,0 c -0.47537,1.941 -1.00355,3.8095 -1.58454,5.6053 -0.581,1.7826 -1.20821,3.453 -1.88164,5.0111 -0.26409,0.5942 -0.54139,1.1026 -0.83188,1.5251 -0.2773,0.4358 -0.5876,0.7923 -0.93092,1.0696 -0.34332,0.2773 -0.73285,0.4819 -1.1686,0.614 -0.42254,0.132 -0.90451,0.198 -1.44589,0.1981 -0.14525,-10e-5 -0.2971,-0.013 -0.45555,-0.04 -0.15846,-0.013 -0.31691,-0.04 -0.47537,-0.079 -0.14525,-0.026 -0.28389,-0.059 -0.41594,-0.099 -0.11884,-0.04 -0.20467,-0.073 -0.25748,-0.099 l 0.33671,-1.4855"
         style="font-size:19.80674744px;fill:#666666"
         id="path3152"
         inkscape:connector-curvature="0" />
    </g>
    <g
       style="font-size:65.30123901px;font-style:normal;font-variant:normal;font-weight:normal;font-stretch:normal;line-height:125%;letter-spacing:0px;word-spacing:0px;fill:#ccff00;fill-opacity:1;stroke:none;font-family:Ubuntu Mono;-inkscape-font-specification:Ubuntu Mono"
       id="text3044">
      <path
         d="m 31.429293,734.34562 c 0.731368,0 1.37132,-0.0914 1.919857,-0.27427 0.548522,-0.21331 1.036105,-0.48758 1.462747,-0.82279 0.4571,-0.33521 0.85326,-0.74661 1.188483,-1.2342 0.365677,-0.48757 0.716126,-1.02087 1.05135,-1.59988 l 0.365687,-0.63995 c -1.127545,-1.76748 -2.224605,-3.61115 -3.291183,-5.53101 -1.066593,-1.95032 -2.072231,-3.85494 -3.016917,-5.71386 -0.914221,-1.85889 -1.752253,-3.61114 -2.514097,-5.25675 -0.76185,-1.67604 -1.401801,-3.12355 -1.919857,-4.34253 l 4.113978,0 c 0.457104,1.15803 0.990397,2.43794 1.599881,3.83971 0.639945,1.40182 1.31037,2.86457 2.011278,4.38824 0.731365,1.49324 1.477975,3.0017 2.239832,4.52538 0.79231,1.49323 1.554157,2.94074 2.285543,4.34253 1.127521,-2.71216 2.17887,-5.47005 3.15405,-8.27367 0.975148,-2.83405 1.874128,-5.77478 2.696941,-8.82219 l 4.068267,0 c -0.6095,1.91988 -1.218978,3.7026 -1.828435,5.34817 -0.579024,1.64561 -1.173265,3.23025 -1.782723,4.75393 -0.579023,1.49324 -1.173264,2.95598 -1.782724,4.38824 -0.579021,1.40181 -1.173262,2.83409 -1.782724,4.29682 -0.548545,1.27992 -1.112312,2.51411 -1.691302,3.70258 -0.579017,1.18849 -1.26468,2.23984 -2.056989,3.15405 -0.761858,0.91422 -1.691312,1.64559 -2.788363,2.19412 -1.066594,0.54853 -2.346497,0.8228 -3.839712,0.8228 -0.609483,0 -1.264671,-0.0762 -1.965567,-0.22855 -0.670429,-0.1219 -1.127537,-0.25903 -1.371326,-0.4114 l 0.685663,-3.19976 c 0.33521,0.15237 0.746607,0.2895 1.234193,0.41139 0.487578,0.1219 1.005634,0.18285 1.554169,0.18285"
         style="font-size:45.71086502px;fill:#ccff00"
         id="path3093"
         inkscape:connector-curvature="0" />
      <path
         d="m 51.359231,726.66619 c -3e-6,-1.91984 0.304736,-3.58067 0.914217,-4.98248 0.609474,-1.40178 1.447506,-2.55979 2.514097,-3.47403 1.06658,-0.91419 2.300773,-1.58462 3.70258,-2.01128 1.432263,-0.45708 2.955957,-0.68564 4.571087,-0.68566 1.036098,2e-5 2.056973,0.0762 3.062628,0.22856 1.036095,0.12191 2.133154,0.3657 3.291182,0.73137 l -0.868506,3.24547 c -1.005658,-0.36567 -1.935111,-0.59422 -2.788363,-0.68566 -0.822811,-0.12188 -1.660843,-0.18283 -2.514098,-0.18284 -1.097073,10e-6 -2.133185,0.15238 -3.108338,0.4571 -0.975176,0.27429 -1.828444,0.73139 -2.559809,1.37133 -0.700908,0.60949 -1.264674,1.41705 -1.691302,2.42268 -0.426641,0.97517 -0.639958,2.16366 -0.639952,3.56544 -6e-6,1.34086 0.198074,2.49887 0.594241,3.47403 0.396154,0.9447 0.944684,1.73702 1.645591,2.37696 0.731365,0.60949 1.599871,1.06659 2.60552,1.37133 1.005627,0.30474 2.117923,0.45711 3.336893,0.45711 0.97515,0 1.904603,-0.0457 2.788363,-0.13713 0.914199,-0.1219 1.9046,-0.36569 2.971206,-0.73138 l 0.54853,3.15405 c -1.066606,0.39616 -2.148429,0.67043 -3.245471,0.8228 -1.097077,0.18284 -2.285559,0.27426 -3.565448,0.27426 -1.706551,0 -3.275956,-0.22855 -4.708219,-0.68566 -1.401807,-0.48758 -2.620762,-1.18848 -3.656869,-2.1027 -1.005643,-0.91421 -1.797964,-2.05699 -2.376965,-3.42832 -0.548533,-1.40179 -0.822798,-3.0169 -0.822795,-4.84535"
         style="font-size:45.71086502px;fill:#ccff00"
         id="path3095"
         inkscape:connector-curvature="0" />
      <path
         d="m 92.179033,716.01556 0,3.15405 -6.902341,0 0,18.05579 -3.748291,0 0,-18.05579 -6.90234,0 0,-3.15405 17.552972,0"
         style="font-size:45.71086502px;fill:#ccff00"
         id="path3097"
         inkscape:connector-curvature="0" />
      <path
         d="m 97.161519,741.20225 c 0.274263,0.15236 0.655186,0.27426 1.142772,0.36569 0.518052,0.0914 0.990397,0.13712 1.417037,0.13713 1.493212,-10e-6 2.651222,-0.33522 3.474022,-1.00564 0.85326,-0.63996 1.63035,-1.70654 2.33126,-3.19976 -1.70655,-3.23023 -3.30643,-6.68902 -4.79964,-10.37637 -1.493229,-3.7178 -2.727421,-7.42038 -3.702583,-11.10774 l 4.113973,0 c 0.30474,1.21898 0.65519,2.54459 1.05135,3.97685 0.42663,1.40181 0.89898,2.84932 1.41704,4.34253 0.51805,1.49323 1.06658,3.00169 1.64559,4.52537 0.60947,1.49323 1.24942,2.92551 1.91986,4.29683 0.48757,-1.4018 0.94468,-2.78836 1.37132,-4.15969 0.42663,-1.37132 0.82279,-2.74264 1.18849,-4.11398 0.36567,-1.40179 0.73136,-2.81882 1.09706,-4.25111 0.36567,-1.46273 0.74659,-3.00166 1.14277,-4.6168 l 3.93113,0 c -0.97518,3.96163 -2.07224,7.80134 -3.29118,11.51914 -1.1885,3.71782 -2.4684,7.16137 -3.83971,10.33065 -0.51807,1.21896 -1.08184,2.27031 -1.6913,3.15405 -0.57902,0.88374 -1.21897,1.61512 -1.91986,2.19413 -0.70091,0.57899 -1.49323,1.00563 -2.37696,1.2799 -0.88375,0.27426 -1.88939,0.41139 -3.016922,0.4114 -0.579008,-10e-6 -1.21896,-0.0762 -1.919856,-0.22856 -0.670428,-0.15237 -1.127536,-0.28951 -1.371326,-0.41139 l 0.685663,-3.06263"
         style="font-size:45.71086502px;fill:#ccff00"
         id="path3099"
         inkscape:connector-curvature="0" />
      <path
         d="m 137.29566,737.2254 -3.79401,0 0,-18.05579 -8.77648,0 0,18.05579 -3.794,0 0,-21.20984 16.36449,0 0,21.20984"
         style="font-size:45.71086502px;fill:#ccff00"
         id="path3101"
         inkscape:connector-curvature="0" />
      <path
         d="m 152.1974,734.52846 c 0.94468,0 1.78271,-0.0305 2.51409,-0.0914 0.76184,-0.0609 1.38655,-0.13713 1.87415,-0.22855 l 0,-6.3081 c -0.4876,-0.15236 -1.08184,-0.27426 -1.78272,-0.36569 -0.67044,-0.0914 -1.38658,-0.13712 -2.14841,-0.13713 -0.70092,10e-6 -1.38658,0.061 -2.05699,0.18284 -0.67044,0.0914 -1.26468,0.27427 -1.78273,0.54853 -0.51806,0.27427 -0.9447,0.63996 -1.2799,1.09706 -0.33522,0.42664 -0.50283,0.97517 -0.50282,1.64559 -1e-5,1.37133 0.4571,2.33126 1.37133,2.87979 0.94468,0.51806 2.20934,0.77708 3.794,0.77708 m -0.36569,-19.01572 c 1.58463,2e-5 2.91024,0.1981 3.97685,0.59424 1.09704,0.39618 1.98078,0.94471 2.65123,1.64559 0.6704,0.70092 1.14275,1.55419 1.41703,2.55981 0.27425,1.00566 0.41138,2.10272 0.4114,3.29119 l 0,13.25615 c -0.88376,0.15237 -2.05701,0.33521 -3.51974,0.54853 -1.43229,0.21331 -2.91027,0.31997 -4.43395,0.31997 -1.15802,0 -2.28555,-0.10666 -3.3826,-0.31997 -1.09707,-0.18285 -2.07224,-0.51806 -2.9255,-1.00564 -0.85327,-0.51806 -1.53894,-1.21896 -2.05699,-2.1027 -0.51806,-0.88374 -0.77709,-2.01128 -0.77708,-3.38261 -1e-5,-1.21895 0.25902,-2.23982 0.77708,-3.06262 0.54853,-0.85326 1.23419,-1.53893 2.05699,-2.05699 0.85326,-0.51805 1.81319,-0.88373 2.87978,-1.09706 1.09706,-0.24378 2.19412,-0.36568 3.29119,-0.36569 1.49321,10e-6 2.95595,0.16762 4.38824,0.50282 l 0,-1.05135 c -2e-5,-0.63994 -0.0762,-1.24942 -0.22855,-1.82844 -0.12192,-0.60946 -0.38094,-1.15799 -0.77709,-1.64559 -0.3657,-0.48756 -0.88376,-0.86849 -1.55417,-1.14277 -0.63996,-0.30472 -1.478,-0.45709 -2.5141,-0.45711 -1.31038,2e-5 -2.45315,0.0914 -3.42831,0.27427 -0.97517,0.18286 -1.72178,0.3657 -2.23983,0.54853 l -0.45711,-3.10834 c 0.51805,-0.24377 1.37132,-0.45709 2.55981,-0.63995 1.21894,-0.18282 2.51408,-0.27425 3.88542,-0.27427"
         style="font-size:45.71086502px;fill:#ccff00"
         id="path3103"
         inkscape:connector-curvature="0" />
      <path
         d="m 183.41792,716.01556 0,21.20984 -3.70258,0 0,-16.18164 c -0.82281,1.03612 -1.69131,2.25508 -2.60552,3.65687 -0.88375,1.40181 -1.78273,2.84932 -2.69694,4.34253 -0.88375,1.46275 -1.73702,2.91026 -2.55981,4.34253 -0.8228,1.43228 -1.55417,2.71218 -2.19412,3.83971 l -3.3826,0 0,-21.20984 3.65687,0 0,15.26743 c 0.70089,-1.18847 1.46274,-2.46838 2.28554,-3.83971 0.82279,-1.40179 1.67606,-2.78835 2.55981,-4.15969 0.88373,-1.40179 1.76747,-2.7274 2.65123,-3.97685 0.88373,-1.27988 1.75223,-2.37694 2.60552,-3.29118 l 3.3826,0 m -8.04511,-3.42831 c -1.70655,2e-5 -3.09311,-0.42661 -4.15969,-1.27991 -1.06659,-0.88371 -1.72178,-2.10267 -1.96556,-3.65687 l 2.87978,-0.77708 c 0.24378,0.88377 0.62471,1.59991 1.14277,2.14841 0.51805,0.51808 1.21895,0.77711 2.1027,0.77708 0.88373,3e-5 1.58463,-0.259 2.1027,-0.77708 0.51804,-0.5485 0.89897,-1.26464 1.14277,-2.14841 l 2.83408,0.77708 c -0.24381,1.5542 -0.899,2.77316 -1.96557,3.65687 -1.03613,0.8533 -2.40745,1.27993 -4.11398,1.27991"
         style="font-size:45.71086502px;fill:#ccff00"
         id="path3105"
         inkscape:connector-curvature="0" />
      <path
         d="m 211.43868,741.20225 c 0.27426,0.15236 0.65519,0.27426 1.14277,0.36569 0.51805,0.0914 0.9904,0.13712 1.41704,0.13713 1.49321,-10e-6 2.65122,-0.33522 3.47402,-1.00564 0.85326,-0.63996 1.63035,-1.70654 2.33126,-3.19976 -1.70655,-3.23023 -3.30643,-6.68902 -4.79964,-10.37637 -1.49323,-3.7178 -2.72742,-7.42038 -3.70258,-11.10774 l 4.11398,0 c 0.30473,1.21898 0.65518,2.54459 1.05134,3.97685 0.42663,1.40181 0.89898,2.84932 1.41704,4.34253 0.51805,1.49323 1.06658,3.00169 1.64559,4.52537 0.60947,1.49323 1.24942,2.92551 1.91986,4.29683 0.48757,-1.4018 0.94468,-2.78836 1.37133,-4.15969 0.42662,-1.37132 0.82278,-2.74264 1.18848,-4.11398 0.36567,-1.40179 0.73136,-2.81882 1.09706,-4.25111 0.36567,-1.46273 0.74659,-3.00166 1.14277,-4.6168 l 3.93113,0 c -0.97518,3.96163 -2.07224,7.80134 -3.29118,11.51914 -1.1885,3.71782 -2.4684,7.16137 -3.83971,10.33065 -0.51807,1.21896 -1.08184,2.27031 -1.6913,3.15405 -0.57902,0.88374 -1.21897,1.61512 -1.91986,2.19413 -0.70091,0.57899 -1.49323,1.00563 -2.37696,1.2799 -0.88375,0.27426 -1.88939,0.41139 -3.01692,0.4114 -0.57901,-10e-6 -1.21896,-0.0762 -1.91986,-0.22856 -0.67043,-0.15237 -1.12753,-0.28951 -1.37132,-0.41139 l 0.68566,-3.06263"
         style="font-size:45.71086502px;fill:#ccff00"
         id="path3107"
         inkscape:connector-curvature="0" />
      <path
         d="m 271.95986,726.66619 c -2e-5,-2.46837 -0.57902,-4.37299 -1.73701,-5.71386 -1.15802,-1.3713 -2.66648,-2.05697 -4.52538,-2.05698 -1.03612,10e-6 -1.85891,0.0457 -2.46838,0.13713 -0.57902,0.0914 -1.03612,0.1981 -1.37133,0.31997 l 0,13.39329 c 0.42663,0.39616 1.05134,0.76185 1.87415,1.09706 0.82278,0.33521 1.67605,0.50282 2.5598,0.50282 1.00563,0 1.8589,-0.19808 2.55981,-0.59424 0.73136,-0.39616 1.3256,-0.92945 1.78273,-1.59988 0.45709,-0.7009 0.7923,-1.50846 1.00564,-2.42268 0.2133,-0.94468 0.31995,-1.96556 0.31997,-3.06263 m 3.88542,0 c -2e-5,1.61513 -0.21333,3.10835 -0.63995,4.47967 -0.39618,1.34085 -0.99042,2.49886 -1.78272,3.47402 -0.76187,0.97517 -1.70656,1.73702 -2.83407,2.28555 -1.12755,0.54853 -2.40746,0.82279 -3.83972,0.82279 -1.12754,0 -2.11794,-0.13713 -2.9712,-0.4114 -0.85328,-0.27426 -1.49323,-0.579 -1.91986,-0.91421 l 0,8.36509 -3.794,0 0,-28.11219 c 0.82279,-0.24377 1.87414,-0.48756 3.15405,-0.73137 1.31037,-0.24377 2.80359,-0.36567 4.47966,-0.36569 1.52369,2e-5 2.91025,0.25905 4.15969,0.77709 1.24942,0.51807 2.316,1.26468 3.19976,2.23983 0.88373,0.94471 1.56939,2.10272 2.05699,3.47403 0.48756,1.37134 0.73135,2.91027 0.73137,4.61679"
         style="font-size:45.71086502px;fill:#ccff00"
         id="path3109"
         inkscape:connector-curvature="0" />
      <path
         d="m 289.33,734.52846 c 0.94467,0 1.78271,-0.0305 2.51409,-0.0914 0.76184,-0.0609 1.38655,-0.13713 1.87415,-0.22855 l 0,-6.3081 c -0.4876,-0.15236 -1.08184,-0.27426 -1.78272,-0.36569 -0.67044,-0.0914 -1.38658,-0.13712 -2.14842,-0.13713 -0.70091,10e-6 -1.38657,0.061 -2.05698,0.18284 -0.67044,0.0914 -1.26468,0.27427 -1.78273,0.54853 -0.51806,0.27427 -0.9447,0.63996 -1.2799,1.09706 -0.33522,0.42664 -0.50283,0.97517 -0.50282,1.64559 -10e-6,1.37133 0.4571,2.33126 1.37132,2.87979 0.94469,0.51806 2.20935,0.77708 3.79401,0.77708 m -0.36569,-19.01572 c 1.58463,2e-5 2.91024,0.1981 3.97684,0.59424 1.09705,0.39618 1.98079,0.94471 2.65123,1.64559 0.67041,0.70092 1.14276,1.55419 1.41704,2.55981 0.27425,1.00566 0.41138,2.10272 0.4114,3.29119 l 0,13.25615 c -0.88376,0.15237 -2.05701,0.33521 -3.51974,0.54853 -1.43229,0.21331 -2.91027,0.31997 -4.43395,0.31997 -1.15802,0 -2.28555,-0.10666 -3.38261,-0.31997 -1.09706,-0.18285 -2.07223,-0.51806 -2.92549,-1.00564 -0.85328,-0.51806 -1.53894,-1.21896 -2.05699,-2.1027 -0.51806,-0.88374 -0.77709,-2.01128 -0.77708,-3.38261 -10e-6,-1.21895 0.25902,-2.23982 0.77708,-3.06262 0.54853,-0.85326 1.23419,-1.53893 2.05699,-2.05699 0.85326,-0.51805 1.81319,-0.88373 2.87978,-1.09706 1.09705,-0.24378 2.19411,-0.36568 3.29119,-0.36569 1.4932,10e-6 2.95595,0.16762 4.38824,0.50282 l 0,-1.05135 c -2e-5,-0.63994 -0.0762,-1.24942 -0.22856,-1.82844 -0.12191,-0.60946 -0.38093,-1.15799 -0.77708,-1.64559 -0.3657,-0.48756 -0.88376,-0.86849 -1.55417,-1.14277 -0.63996,-0.30472 -1.478,-0.45709 -2.5141,-0.45711 -1.31039,2e-5 -2.45316,0.0914 -3.42831,0.27427 -0.97517,0.18286 -1.72178,0.3657 -2.23983,0.54853 l -0.45711,-3.10834 c 0.51805,-0.24377 1.37132,-0.45709 2.55981,-0.63995 1.21894,-0.18282 2.51408,-0.27425 3.88542,-0.27427"
         style="font-size:45.71086502px;fill:#ccff00"
         id="path3111"
         inkscape:connector-curvature="0" />
      <path
         d="m 301.76336,734.02564 1.64559,0 c 0.91421,-1.31037 1.63035,-2.65122 2.14841,-4.02255 0.51805,-1.37132 0.89897,-2.78836 1.14277,-4.25111 0.27426,-1.49321 0.4571,-3.03214 0.54853,-4.6168 0.0914,-1.6151 0.15236,-3.32164 0.18284,-5.11962 l 12.52478,0 0,18.01008 1.78272,0 0,9.09646 -3.56544,0 0,-5.8967 -12.84476,0 0,5.8967 -3.56544,0 0,-9.09646 m 14.44463,0 0,-14.85603 -5.16533,0 c -1e-5,1.21897 -0.061,2.51411 -0.18284,3.88542 -0.12191,1.34087 -0.33522,2.66648 -0.63995,3.97685 -0.27428,1.31039 -0.6552,2.57505 -1.14277,3.794 -0.4876,1.18849 -1.08184,2.25508 -1.78273,3.19976 l 8.91362,0"
         style="font-size:45.71086502px;fill:#ccff00"
         id="path3113"
         inkscape:connector-curvature="0" />
      <path
         d="m 331.61256,726.7119 c -0.48759,10e-6 -0.95994,0.0305 -1.41704,0.0914 -0.42664,0.0305 -0.8228,0.1219 -1.18848,0.27426 l 0,7.26803 c 0.24378,0.0609 0.62471,0.1219 1.14277,0.18284 0.51805,0.0305 0.97516,0.0457 1.37133,0.0457 1.00563,1e-5 1.81318,-0.30473 2.42267,-0.91421 0.63994,-0.63995 0.95992,-1.66083 0.95993,-3.06263 -1e-5,-1.37132 -0.35046,-2.36172 -1.05135,-2.97121 -0.70091,-0.60947 -1.44752,-0.91421 -2.23983,-0.91422 m -6.17097,-10.69634 3.56545,0 0,8.09082 c 0.33521,-0.0914 0.77708,-0.18283 1.32561,-0.27426 0.579,-0.12188 1.17324,-0.18283 1.78273,-0.18284 0.85326,1e-5 1.66081,0.13714 2.42267,0.41139 0.79231,0.24381 1.47797,0.63997 2.05699,1.18849 0.60947,0.54854 1.08181,1.26467 1.41704,2.14841 0.36567,0.88375 0.54851,1.9351 0.54853,3.15405 -2e-5,2.55981 -0.67044,4.38824 -2.01128,5.4853 -1.31039,1.09706 -3.01693,1.64559 -5.11962,1.64559 -1.06659,0 -2.08746,-0.0762 -3.06262,-0.22855 -0.9447,-0.1219 -1.91986,-0.35045 -2.9255,-0.68567 l 0,-20.75273 m 18.74146,21.20984 -3.56545,0 0,-21.20984 3.56545,0 0,21.20984"
         style="font-size:45.71086502px;fill:#ccff00"
         id="path3115"
         inkscape:connector-curvature="0" />
      <path
         d="m 371.0153,722.0494 c 0,-3.59591 0.73138,-6.33856 2.19413,-8.22796 1.49321,-1.88936 3.45878,-3.00165 5.8967,-3.33689 l 0,-3.38261 3.33689,0 0,3.38261 c 2.40742,0.33524 4.34251,1.44753 5.80528,3.33689 1.4932,1.8894 2.23981,4.63205 2.23983,8.22796 -2e-5,1.79797 -0.1981,3.38261 -0.59424,4.75393 -0.36571,1.37133 -0.91424,2.54457 -1.64559,3.51973 -0.70092,0.9447 -1.55419,1.69131 -2.55981,2.23983 -0.97518,0.54854 -2.057,0.91423 -3.24547,1.09707 l 0,3.56544 -3.33689,0 0,-3.56544 c -1.21897,-0.18284 -2.33126,-0.54853 -3.3369,-1.09707 -0.97517,-0.54852 -1.82844,-1.29513 -2.5598,-2.23983 -0.70091,-0.97516 -1.24944,-2.1484 -1.6456,-3.51973 -0.36568,-1.37132 -0.54853,-2.95596 -0.54853,-4.75393 m 3.74829,0 c 0,2.49887 0.33521,4.4492 1.00564,5.85099 0.7009,1.4018 1.81319,2.27031 3.3369,2.60552 l 0,-16.91302 c -1.52371,0.33523 -2.636,1.21897 -3.3369,2.65123 -0.67043,1.40182 -1.00564,3.33691 -1.00564,5.80528 m 11.97625,0 c -2e-5,-4.87581 -1.43229,-7.67941 -4.29682,-8.4108 l 0,16.82159 c 2.86453,-0.70089 4.2968,-3.50448 4.29682,-8.41079"
         style="font-size:45.71086502px;fill:#ccff00"
         id="path3117"
         inkscape:connector-curvature="0" />
      <path
         d="m 394.28214,741.20225 c 0.27426,0.15236 0.65519,0.27426 1.14277,0.36569 0.51805,0.0914 0.9904,0.13712 1.41704,0.13713 1.49321,-10e-6 2.65122,-0.33522 3.47402,-1.00564 0.85326,-0.63996 1.63035,-1.70654 2.33126,-3.19976 -1.70655,-3.23023 -3.30643,-6.68902 -4.79964,-10.37637 -1.49323,-3.7178 -2.72742,-7.42038 -3.70258,-11.10774 l 4.11398,0 c 0.30473,1.21898 0.65518,2.54459 1.05135,3.97685 0.42662,1.40181 0.89897,2.84932 1.41703,4.34253 0.51805,1.49323 1.06658,3.00169 1.64559,4.52537 0.60947,1.49323 1.24942,2.92551 1.91986,4.29683 0.48757,-1.4018 0.94468,-2.78836 1.37133,-4.15969 0.42662,-1.37132 0.82278,-2.74264 1.18848,-4.11398 0.36567,-1.40179 0.73136,-2.81882 1.09706,-4.25111 0.36567,-1.46273 0.74659,-3.00166 1.14277,-4.6168 l 3.93113,0 c -0.97518,3.96163 -2.07224,7.80134 -3.29118,11.51914 -1.1885,3.71782 -2.4684,7.16137 -3.83971,10.33065 -0.51807,1.21896 -1.08184,2.27031 -1.6913,3.15405 -0.57902,0.88374 -1.21897,1.61512 -1.91986,2.19413 -0.70091,0.57899 -1.49323,1.00563 -2.37696,1.2799 -0.88375,0.27426 -1.88939,0.41139 -3.01692,0.4114 -0.57901,-10e-6 -1.21896,-0.0762 -1.91986,-0.22856 -0.67043,-0.15237 -1.12753,-0.28951 -1.37132,-0.41139 l 0.68566,-3.06263"
         style="font-size:45.71086502px;fill:#ccff00"
         id="path3119"
         inkscape:connector-curvature="0" />
      <path
         d="m 431.9479,726.66619 c -2e-5,-2.46837 -0.57902,-4.37299 -1.73701,-5.71386 -1.15803,-1.3713 -2.66648,-2.05697 -4.52538,-2.05698 -1.03612,10e-6 -1.85892,0.0457 -2.46839,0.13713 -0.57901,0.0914 -1.03612,0.1981 -1.37132,0.31997 l 0,13.39329 c 0.42662,0.39616 1.05134,0.76185 1.87414,1.09706 0.82279,0.33521 1.67606,0.50282 2.55981,0.50282 1.00563,0 1.8589,-0.19808 2.55981,-0.59424 0.73136,-0.39616 1.3256,-0.92945 1.78272,-1.59988 0.4571,-0.7009 0.79231,-1.50846 1.00564,-2.42268 0.2133,-0.94468 0.31996,-1.96556 0.31998,-3.06263 m 3.88542,0 c -2e-5,1.61513 -0.21334,3.10835 -0.63995,4.47967 -0.39618,1.34085 -0.99042,2.49886 -1.78272,3.47402 -0.76187,0.97517 -1.70656,1.73702 -2.83408,2.28555 -1.12755,0.54853 -2.40745,0.82279 -3.83971,0.82279 -1.12755,0 -2.11795,-0.13713 -2.97121,-0.4114 -0.85327,-0.27426 -1.49323,-0.579 -1.91985,-0.91421 l 0,8.36509 -3.794,0 0,-28.11219 c 0.82279,-0.24377 1.87414,-0.48756 3.15405,-0.73137 1.31037,-0.24377 2.80359,-0.36567 4.47966,-0.36569 1.52368,2e-5 2.91024,0.25905 4.15969,0.77709 1.24941,0.51807 2.316,1.26468 3.19976,2.23983 0.88372,0.94471 1.56939,2.10272 2.05699,3.47403 0.48756,1.37134 0.73135,2.91027 0.73137,4.61679"
         style="font-size:45.71086502px;fill:#ccff00"
         id="path3121"
         inkscape:connector-curvature="0" />
      <path
         d="m 451.05505,706.18773 0,2.05698 c -2e-5,0.67046 -0.0305,1.44754 -0.0914,2.33126 -0.0305,0.85329 -0.0914,1.75227 -0.18284,2.69694 -0.061,0.91424 -0.13715,1.82846 -0.22855,2.74265 -0.0914,0.88377 -0.1981,1.67609 -0.31998,2.37697 l -2.33125,0 c -0.12191,-0.70088 -0.22857,-1.4932 -0.31998,-2.37697 -0.0914,-0.91419 -0.18285,-1.82841 -0.27427,-2.74265 -0.061,-0.94467 -0.1219,-1.85888 -0.18284,-2.74265 -0.0305,-0.88372 -0.0457,-1.6608 -0.0457,-2.33126 l 0,-2.01127 3.97685,0"
         style="font-size:45.71086502px;fill:#ccff00"
         id="path3123"
         inkscape:connector-curvature="0" />
      <path
         d="m 472.35628,715.51274 c 2.86454,2e-5 5.07389,0.899 6.62808,2.69694 1.55415,1.76751 2.33123,4.46445 2.33125,8.09083 l 0,1.32561 -15.176,0 c 0.15236,2.19413 0.8685,3.87019 2.14841,5.0282 1.31037,1.12753 3.1388,1.6913 5.4853,1.6913 1.34084,0 2.48361,-0.10666 3.42832,-0.31998 0.94467,-0.21331 1.66081,-0.44187 2.14841,-0.68566 l 0.50282,3.19976 c -0.45713,0.24379 -1.27993,0.50282 -2.46839,0.77708 -1.1885,0.27427 -2.52935,0.4114 -4.02256,0.4114 -1.82844,0 -3.44356,-0.27426 -4.84535,-0.82279 -1.37133,-0.57901 -2.5141,-1.35609 -3.42831,-2.33126 -0.91422,-0.97516 -1.59989,-2.13317 -2.05699,-3.47402 -0.45711,-1.37132 -0.68567,-2.8493 -0.68567,-4.43396 0,-1.88937 0.2895,-3.53496 0.86851,-4.93677 0.579,-1.40178 1.34085,-2.55979 2.28554,-3.47403 0.94469,-0.91419 2.01128,-1.59986 3.19976,-2.05699 1.18848,-0.45708 2.40743,-0.68564 3.65687,-0.68566 m 5.11962,9.05075 c -2e-5,-1.79794 -0.47236,-3.21498 -1.41704,-4.25111 -0.9447,-1.06657 -2.19413,-1.59986 -3.74829,-1.59988 -0.88375,2e-5 -1.69131,0.16763 -2.42267,0.50282 -0.70091,0.33523 -1.31039,0.7771 -1.82844,1.32562 -0.51806,0.54854 -0.92946,1.17326 -1.23419,1.87414 -0.30475,0.70092 -0.50283,1.41705 -0.59424,2.14841 l 11.24487,0"
         style="font-size:45.71086502px;fill:#ccff00"
         id="path3125"
         inkscape:connector-curvature="0" />
      <path
         d="m 496.76589,716.6098 c -1e-5,1.12756 -0.0153,2.16367 -0.0457,3.10834 -0.0305,0.94471 -0.0914,1.84369 -0.18284,2.69694 -0.061,0.85329 -0.13715,1.70655 -0.22856,2.55981 -0.0914,0.82281 -0.18285,1.69131 -0.27426,2.60552 l -2.60552,0 c -0.0914,-0.91421 -0.18285,-1.78271 -0.27427,-2.60552 -0.0914,-0.85326 -0.18285,-1.70652 -0.27426,-2.55981 -0.061,-0.85325 -0.10667,-1.75223 -0.13713,-2.69694 -0.0305,-0.94467 -0.0457,-1.98078 -0.0457,-3.10834 l 0,-7.67942 4.06827,0 0,7.67942 m -2.05699,21.16413 c -0.8228,0 -1.53894,-0.27426 -2.14841,-0.82279 -0.60948,-0.57901 -0.91422,-1.34085 -0.91422,-2.28555 0,-0.94468 0.30474,-1.69129 0.91422,-2.23983 0.60947,-0.579 1.32561,-0.8685 2.14841,-0.8685 0.85326,0 1.5694,0.2895 2.14841,0.8685 0.60947,0.54854 0.91421,1.29515 0.91422,2.23983 -1e-5,0.9447 -0.30475,1.70654 -0.91422,2.28555 -0.57901,0.54853 -1.29515,0.82279 -2.14841,0.82279"
         style="font-size:45.71086502px;fill:#ccff00"
         id="path3127"
         inkscape:connector-curvature="0" />
    </g>
    <g
       id="g3050">
      <g
         style="font-size:34px;font-style:normal;font-variant:normal;font-weight:normal;font-stretch:normal;line-height:125%;letter-spacing:0px;word-spacing:0px;fill:#f9f9f9;fill-opacity:1;stroke:none;font-family:Ubuntu Mono;-inkscape-font-specification:Ubuntu Mono"
         id="text3041">
        <path
           d="m 37.959966,869.32073 -2.754,12.818 c -0.249342,1.13334 -0.544009,2.09667 -0.884,2.89 -0.317341,0.816 -0.725341,1.47333 -1.224,1.972 -0.498673,0.52133 -1.110673,0.89533 -1.836,1.122 -0.702671,0.22666 -1.541337,0.34 -2.516,0.34 -0.340003,0 -0.725335,-0.0453 -1.156,-0.136 -0.430668,-0.0907 -0.770668,-0.22667 -1.02,-0.408 l 0.646,-2.346 c 0.475998,0.29467 1.133331,0.442 1.972,0.442 0.906662,0 1.609328,-0.35133 2.108,-1.054 0.498661,-0.70267 0.87266,-1.632 1.122,-2.788 l 2.72,-12.852 -3.4,0 0.578,-2.346 3.332,0 0.306,-1.428 c 0.430656,-2.03998 1.189989,-3.60398 2.278,-4.692 1.110653,-1.11064 2.753985,-1.66597 4.93,-1.666 0.702649,3e-5 1.371315,0.068 2.006,0.204 0.634647,0.13603 1.110646,0.29469 1.428,0.476 l -1.122,2.244 c -0.181353,-0.0906 -0.464686,-0.19264 -0.85,-0.306 -0.362685,-0.13598 -0.940684,-0.20398 -1.734,-0.204 -0.65735,2e-5 -1.224016,0.10202 -1.7,0.306 -0.453348,0.18136 -0.850014,0.45336 -1.19,0.816 -0.317347,0.34002 -0.578014,0.75936 -0.782,1.258 -0.181346,0.47602 -0.340013,1.00869 -0.476,1.598 l -0.306,1.394 6.392,0 -0.578,2.346 -6.29,0"
           style="font-size:34px;font-style:italic;fill:#f9f9f9;-inkscape-font-specification:Ubuntu Mono Italic"
           id="path3024"
           inkscape:connector-curvature="0" />
        <path
           d="m 61.045966,861.09273 c -1.47335,0.92936 -2.833349,2.00602 -4.08,3.23 -1.224013,1.22402 -2.289345,2.53868 -3.196,3.944 -0.906677,1.38268 -1.609343,2.83335 -2.108,4.352 -0.498675,1.51868 -0.748008,3.06001 -0.748,4.624 -8e-6,1.63201 0.294658,3.24134 0.884,4.828 0.589324,1.58667 1.56399,3.094 2.924,4.522 l -1.836,1.836 c -1.632008,-1.632 -2.822007,-3.38867 -3.57,-5.27 -0.725339,-1.88133 -1.088005,-3.79666 -1.088,-5.746 -5e-6,-1.79066 0.283328,-3.55866 0.85,-5.304 0.56666,-1.76799 1.359992,-3.45665 2.38,-5.066 1.042657,-1.60931 2.277989,-3.10531 3.706,-4.488 1.450653,-1.40531 3.048651,-2.61797 4.794,-3.638 l 1.088,2.176"
           style="fill:#f9f9f9"
           id="path3026"
           inkscape:connector-curvature="0" />
        <path
           d="m 70.735966,872.61873 c 0.475989,-0.52132 0.951988,-1.05399 1.428,-1.598 0.498654,-0.54399 0.974653,-1.06532 1.428,-1.564 0.453319,-0.52132 0.861319,-0.98598 1.224,-1.394 0.362651,-0.43065 0.645984,-0.79332 0.85,-1.088 l 3.026,0 c -0.136019,0.18135 -0.374018,0.47602 -0.714,0.884 -0.317351,0.38535 -0.691351,0.82735 -1.122,1.326 -0.430683,0.49868 -0.895349,1.03135 -1.394,1.598 -0.476015,0.54401 -0.940681,1.06535 -1.394,1.564 -0.453347,0.49868 -0.87268,0.96335 -1.258,1.394 -0.362679,0.40801 -0.646012,0.72534 -0.85,0.952 0.657321,1.29201 1.291987,2.58401 1.904,3.876 0.611985,1.29201 1.178651,2.686 1.7,4.182 l -2.958,0 c -0.408012,-1.11066 -0.816012,-2.13066 -1.224,-3.06 -0.385344,-0.92933 -0.827344,-1.90399 -1.326,-2.924 l -5.916,5.984 -3.264,0 7.922,-8.126 -3.91,-7.65 3.128,0 2.72,5.644"
           style="fill:#f9f9f9"
           id="path3028"
           inkscape:connector-curvature="0" />
        <path
           d="m 79.167966,886.25273 c 1.47333,-0.92933 2.833328,-2.006 4.08,-3.23 1.246659,-1.224 2.311991,-2.52733 3.196,-3.91 0.906656,-1.40533 1.609322,-2.86732 2.108,-4.386 0.521321,-1.51865 0.781988,-3.05999 0.782,-4.624 -1.2e-5,-1.63198 -0.306012,-3.24132 -0.918,-4.828 -0.589344,-1.58665 -1.552677,-3.09398 -2.89,-4.522 l 1.802,-1.836 c 1.631988,1.63202 2.821987,3.38869 3.57,5.27 0.747985,1.88135 1.121985,3.79668 1.122,5.746 -1.5e-5,1.79068 -0.283348,3.57001 -0.85,5.338 -0.56668,1.74534 -1.371346,3.42267 -2.414,5.032 -1.020011,1.60934 -2.255343,3.10534 -3.706,4.488 -1.428007,1.40533 -3.026005,2.618 -4.794,3.638 l -1.088,-2.176"
           style="fill:#f9f9f9"
           id="path3030"
           inkscape:connector-curvature="0" />
        <path
           d="m 95.827966,875.84873 13.906004,0 0,2.414 -13.906004,0 0,-2.414 m 0,-6.46 13.906004,0 0,2.414 -13.906004,0 0,-2.414"
           id="path3032"
           inkscape:connector-curvature="0" />
        <path
           d="m 146.82797,872.61873 5.712,0 0,-6.256 2.448,0 0,6.256 5.746,0 0,2.38 -5.746,0 0,6.29 -2.448,0 0,-6.29 -5.712,0 0,-2.38"
           id="path3034"
           inkscape:connector-curvature="0" />
        <path
           d="m 209.31997,860.95673 c -2.10802,1.63202 -3.71735,3.51335 -4.828,5.644 -1.11068,2.13068 -1.66601,4.45401 -1.666,6.97 -1e-5,1.26934 0.12466,2.47068 0.374,3.604 0.27199,1.13334 0.66865,2.22134 1.19,3.264 0.54399,1.04267 1.22399,2.05134 2.04,3.026 0.83865,0.97467 1.82465,1.94933 2.958,2.924 l -1.53,2.04 c -2.60668,-1.92667 -4.55601,-4.15933 -5.848,-6.698 -1.26934,-2.56133 -1.90401,-5.25866 -1.904,-8.092 -1e-5,-2.81065 0.64599,-5.49665 1.938,-8.058 1.29199,-2.56131 3.22999,-4.78264 5.814,-6.664 l 1.496,2.04 -0.034,0"
           id="path3036"
           inkscape:connector-curvature="0" />
        <path
           d="m 226.04797,882.92073 c -0.11335,-0.22666 -0.21535,-0.46466 -0.306,-0.714 -0.0907,-0.272 -0.15868,-0.56666 -0.204,-0.884 -0.45335,0.408 -1.08802,0.816 -1.904,1.224 -0.79335,0.38534 -1.73401,0.578 -2.822,0.578 -1.76801,0 -3.07134,-0.53266 -3.91,-1.598 -0.81601,-1.06533 -1.22401,-2.41399 -1.224,-4.046 -10e-6,-1.35999 0.22666,-2.68599 0.68,-3.978 0.45333,-1.29199 1.13332,-2.44799 2.04,-3.468 0.92932,-1.01998 2.08532,-1.83598 3.468,-2.448 1.38265,-0.63465 2.99198,-0.95198 4.828,-0.952 0.27198,2e-5 0.57798,0.0113 0.918,0.034 0.36265,0.0227 0.72531,0.068 1.088,0.136 0.36265,0.068 0.71398,0.15868 1.054,0.272 0.36265,0.0907 0.67998,0.20402 0.952,0.34 l -2.312,9.52 c -0.11335,0.47601 -0.21535,0.92934 -0.306,1.36 -0.068,0.40801 -0.10202,0.85001 -0.102,1.326 -2e-5,0.47601 0.0453,0.952 0.136,1.428 0.0906,0.45334 0.22665,0.96334 0.408,1.53 l -2.482,0.34 m -4.658,-2.108 c 0.86132,0 1.62065,-0.18133 2.278,-0.544 0.67998,-0.36266 1.24665,-0.79333 1.7,-1.292 0.0226,-0.33999 0.0566,-0.72533 0.102,-1.156 0.068,-0.43066 0.14732,-0.83866 0.238,-1.224 l 1.87,-7.446 c -0.11335,-0.0453 -0.32869,-0.0793 -0.646,-0.102 -0.31735,-0.0453 -0.56668,-0.068 -0.748,-0.068 -1.15602,2e-5 -2.21002,0.22668 -3.162,0.68 -0.92935,0.45335 -1.73401,1.06535 -2.414,1.836 -0.68001,0.74801 -1.20134,1.62068 -1.564,2.618 -0.36268,0.97468 -0.54401,1.99468 -0.544,3.06 -1e-5,0.52134 0.0453,1.00867 0.136,1.462 0.0907,0.43067 0.23799,0.80467 0.442,1.122 0.22666,0.31734 0.52132,0.578 0.884,0.782 0.38532,0.18134 0.86132,0.272 1.428,0.272"
           style="font-size:34px;font-style:italic;fill:#f9f9f9;-inkscape-font-specification:Ubuntu Mono Italic"
           id="path3038"
           inkscape:connector-curvature="0" />
        <path
           d="m 248.92997,874.89673 c -1e-5,-1.42799 0.22666,-2.66332 0.68,-3.706 0.45333,-1.04265 1.07666,-1.90398 1.87,-2.584 0.79332,-0.67998 1.71132,-1.17865 2.754,-1.496 1.06532,-0.33998 2.19865,-0.50998 3.4,-0.51 0.77065,2e-5 1.52998,0.0567 2.278,0.17 0.77065,0.0907 1.58665,0.27202 2.448,0.544 l -0.646,2.414 c -0.74802,-0.27198 -1.43935,-0.44198 -2.074,-0.51 -0.61202,-0.0907 -1.23535,-0.13598 -1.87,-0.136 -0.81601,2e-5 -1.58668,0.11335 -2.312,0.34 -0.72535,0.20402 -1.36001,0.54402 -1.904,1.02 -0.52134,0.45335 -0.94068,1.05401 -1.258,1.802 -0.31734,0.72535 -0.47601,1.60934 -0.476,2.652 -1e-5,0.99734 0.14732,1.85868 0.442,2.584 0.29466,0.70267 0.70266,1.29201 1.224,1.768 0.54399,0.45334 1.18999,0.79334 1.938,1.02 0.74799,0.22667 1.57532,0.34 2.482,0.34 0.72532,0 1.41665,-0.034 2.074,-0.102 0.67998,-0.0907 1.41665,-0.272 2.21,-0.544 l 0.408,2.346 c -0.79335,0.29467 -1.59802,0.49867 -2.414,0.612 -0.81602,0.136 -1.70002,0.204 -2.652,0.204 -1.26935,0 -2.43668,-0.17 -3.502,-0.51 -1.04268,-0.36266 -1.94934,-0.884 -2.72,-1.564 -0.74801,-0.68 -1.33734,-1.52999 -1.768,-2.55 -0.40801,-1.04266 -0.61201,-2.24399 -0.612,-3.604"
           id="path3040"
           inkscape:connector-curvature="0" />
        <path
           d="m 279.90397,874.86273 c -2e-5,1.24668 -0.18135,2.38001 -0.544,3.4 -0.34002,0.99734 -0.82735,1.85867 -1.462,2.584 -0.63468,0.72534 -1.39402,1.292 -2.278,1.7 -0.88401,0.38534 -1.84735,0.578 -2.89,0.578 -1.02001,0 -1.97201,-0.19266 -2.856,-0.578 -0.86134,-0.408 -1.60934,-0.97466 -2.244,-1.7 -0.63467,-0.72533 -1.13334,-1.58666 -1.496,-2.584 -0.34001,-1.01999 -0.51001,-2.15332 -0.51,-3.4 -10e-6,-1.24666 0.16999,-2.37999 0.51,-3.4 0.36266,-1.01999 0.86133,-1.88132 1.496,-2.584 0.63466,-0.72532 1.38266,-1.28065 2.244,-1.666 0.88399,-0.40798 1.83599,-0.61198 2.856,-0.612 1.04265,2e-5 2.00599,0.20402 2.89,0.612 0.88398,0.38535 1.64332,0.94068 2.278,1.666 0.63465,0.70268 1.12198,1.56401 1.462,2.584 0.36265,1.02001 0.54398,2.15334 0.544,3.4 m -2.89,0 c -2e-5,-1.79065 -0.38535,-3.19599 -1.156,-4.216 -0.77068,-1.04265 -1.81335,-1.56398 -3.128,-1.564 -1.29201,2e-5 -2.32334,0.52135 -3.094,1.564 -0.74801,1.02001 -1.12201,2.42535 -1.122,4.216 -10e-6,1.76801 0.37399,3.17334 1.122,4.216 0.77066,1.02001 1.80199,1.53 3.094,1.53 1.31465,0 2.35732,-0.50999 3.128,-1.53 0.77065,-1.04266 1.15598,-2.44799 1.156,-4.216"
           id="path3042"
           inkscape:connector-curvature="0" />
        <path
           d="m 293.19797,878.80673 c -2e-5,-0.56666 -0.23802,-1.03133 -0.714,-1.394 -0.45335,-0.36266 -1.03135,-0.67999 -1.734,-0.952 -0.68001,-0.27199 -1.42801,-0.53266 -2.244,-0.782 -0.81601,-0.27199 -1.57534,-0.60066 -2.278,-0.986 -0.68001,-0.38532 -1.25801,-0.86132 -1.734,-1.428 -0.45334,-0.56665 -0.68001,-1.30332 -0.68,-2.21 -10e-6,-1.26932 0.50999,-2.32332 1.53,-3.162 1.04266,-0.86132 2.66332,-1.29198 4.862,-1.292 0.86132,2e-5 1.74532,0.068 2.652,0.204 0.92932,0.11335 1.72265,0.27202 2.38,0.476 l -0.51,2.516 c -0.18135,-0.0906 -0.43068,-0.18132 -0.748,-0.272 -0.31735,-0.11332 -0.68002,-0.20398 -1.088,-0.272 -0.40802,-0.0907 -0.85002,-0.15865 -1.326,-0.204 -0.45335,-0.0453 -0.89535,-0.068 -1.326,-0.068 -2.44801,2e-5 -3.67201,0.66868 -3.672,2.006 -10e-6,0.47601 0.22666,0.88401 0.68,1.224 0.47599,0.31735 1.06532,0.61201 1.768,0.884 0.70265,0.27201 1.46199,0.55534 2.278,0.85 0.81598,0.27201 1.57532,0.61201 2.278,1.02 0.70265,0.40801 1.28065,0.90668 1.734,1.496 0.47598,0.56667 0.71398,1.29201 0.714,2.176 -2e-5,1.42801 -0.55535,2.53867 -1.666,3.332 -1.11068,0.77067 -2.86735,1.156 -5.27,1.156 -1.08801,0 -2.08534,-0.0907 -2.992,-0.272 -0.90667,-0.18133 -1.76801,-0.45333 -2.584,-0.816 l 0.544,-2.55 c 0.79333,0.36267 1.62066,0.66867 2.482,0.918 0.88399,0.22667 1.82466,0.34 2.822,0.34 2.56132,0 3.84198,-0.64599 3.842,-1.938"
           id="path3044"
           inkscape:connector-curvature="0" />
        <path
           d="m 303.19397,882.75073 -2.788,0 3.638,-15.198 c 0.92932,-0.27198 1.92665,-0.48732 2.992,-0.646 1.06532,-0.18131 2.02865,-0.27198 2.89,-0.272 0.90665,2e-5 1.68865,0.12469 2.346,0.374 0.65731,0.24935 1.18998,0.60068 1.598,1.054 0.40798,0.43068 0.70265,0.95202 0.884,1.564 0.20398,0.61201 0.30598,1.28068 0.306,2.006 -2e-5,0.47601 -0.0454,0.97468 -0.136,1.496 -0.0907,0.49868 -0.20402,1.00868 -0.34,1.53 l -1.938,8.092 -2.788,0 1.802,-7.48 c 0.13598,-0.56666 0.27198,-1.13332 0.408,-1.7 0.13598,-0.58932 0.20398,-1.15599 0.204,-1.7 -2e-5,-0.79332 -0.22668,-1.45065 -0.68,-1.972 -0.45335,-0.54398 -1.28068,-0.81598 -2.482,-0.816 -0.52135,2e-5 -1.03135,0.034 -1.53,0.102 -0.47601,0.0454 -0.87268,0.12468 -1.19,0.238 l -3.196,13.328"
           id="path3046"
           inkscape:connector-curvature="0" />
        <path
           d="m 325.73597,872.61873 c 0.47598,-0.52132 0.95198,-1.05399 1.428,-1.598 0.49865,-0.54399 0.97465,-1.06532 1.428,-1.564 0.45332,-0.52132 0.86131,-0.98598 1.224,-1.394 0.36265,-0.43065 0.64598,-0.79332 0.85,-1.088 l 3.026,0 c -0.13602,0.18135 -0.37402,0.47602 -0.714,0.884 -0.31736,0.38535 -0.69135,0.82735 -1.122,1.326 -0.43069,0.49868 -0.89535,1.03135 -1.394,1.598 -0.47602,0.54401 -0.94069,1.06535 -1.394,1.564 -0.45335,0.49868 -0.87268,0.96335 -1.258,1.394 -0.36268,0.40801 -0.64602,0.72534 -0.85,0.952 0.65732,1.29201 1.29198,2.58401 1.904,3.876 0.61198,1.29201 1.17865,2.686 1.7,4.182 l -2.958,0 c -0.40802,-1.11066 -0.81602,-2.13066 -1.224,-3.06 -0.38535,-0.92933 -0.82735,-1.90399 -1.326,-2.924 l -5.916,5.984 -3.264,0 7.922,-8.126 -3.91,-7.65 3.128,0 2.72,5.644"
           style="font-size:34px;font-style:italic;fill:#f9f9f9;-inkscape-font-specification:Ubuntu Mono Italic"
           id="path3048"
           inkscape:connector-curvature="0" />
        <path
           d="m 350.82797,872.61873 5.712,0 0,-6.256 2.448,0 0,6.256 5.746,0 0,2.38 -5.746,0 0,6.29 -2.448,0 0,-6.29 -5.712,0 0,-2.38"
           id="path3050"
           inkscape:connector-curvature="0" />
        <path
           d="m 374.69597,867.58673 c 0.47599,-0.29465 1.01999,-0.53265 1.632,-0.714 0.61198,-0.18131 1.25798,-0.27198 1.938,-0.272 0.88398,2e-5 1.64332,0.14735 2.278,0.442 0.65731,0.27202 1.18998,0.65735 1.598,1.156 0.43065,0.47602 0.74798,1.05402 0.952,1.734 0.22665,0.68001 0.33998,1.41668 0.34,2.21 -2e-5,1.40534 -0.22669,2.76534 -0.68,4.08 -0.43069,1.31467 -1.09935,2.48201 -2.006,3.502 -0.90668,1.02 -2.05135,1.836 -3.434,2.448 -1.36001,0.612 -2.95801,0.918 -4.794,0.918 -0.61201,0 -1.31468,-0.0793 -2.108,-0.238 -0.79334,-0.136 -1.46201,-0.374 -2.006,-0.714 l 5.372,-22.474 2.924,-0.476 -2.006,8.398 m 2.856,1.394 c -0.61202,2e-5 -1.22401,0.10202 -1.836,0.306 -0.61201,0.20402 -1.17868,0.49868 -1.7,0.884 l -2.482,10.302 c 0.45332,0.11334 0.95199,0.17 1.496,0.17 1.15599,0 2.19865,-0.22666 3.128,-0.68 0.95198,-0.45333 1.75665,-1.05399 2.414,-1.802 0.65732,-0.77066 1.16732,-1.64332 1.53,-2.618 0.36265,-0.99732 0.54398,-2.02866 0.544,-3.094 -2e-5,-0.45332 -0.0453,-0.88399 -0.136,-1.292 -0.0907,-0.43065 -0.26069,-0.80465 -0.51,-1.122 -0.22668,-0.31732 -0.54402,-0.56665 -0.952,-0.748 -0.38535,-0.20398 -0.88402,-0.30598 -1.496,-0.306"
           style="font-size:34px;font-style:italic;fill:#f9f9f9;-inkscape-font-specification:Ubuntu Mono Italic"
           id="path3052"
           inkscape:connector-curvature="0" />
        <path
           d="m 412.19797,878.80673 c -2e-5,-0.56666 -0.23802,-1.03133 -0.714,-1.394 -0.45335,-0.36266 -1.03135,-0.67999 -1.734,-0.952 -0.68001,-0.27199 -1.42801,-0.53266 -2.244,-0.782 -0.81601,-0.27199 -1.57534,-0.60066 -2.278,-0.986 -0.68001,-0.38532 -1.25801,-0.86132 -1.734,-1.428 -0.45334,-0.56665 -0.68001,-1.30332 -0.68,-2.21 -10e-6,-1.26932 0.50999,-2.32332 1.53,-3.162 1.04266,-0.86132 2.66332,-1.29198 4.862,-1.292 0.86132,2e-5 1.74532,0.068 2.652,0.204 0.92932,0.11335 1.72265,0.27202 2.38,0.476 l -0.51,2.516 c -0.18135,-0.0906 -0.43068,-0.18132 -0.748,-0.272 -0.31735,-0.11332 -0.68002,-0.20398 -1.088,-0.272 -0.40802,-0.0907 -0.85002,-0.15865 -1.326,-0.204 -0.45335,-0.0453 -0.89535,-0.068 -1.326,-0.068 -2.44801,2e-5 -3.67201,0.66868 -3.672,2.006 -10e-6,0.47601 0.22666,0.88401 0.68,1.224 0.47599,0.31735 1.06532,0.61201 1.768,0.884 0.70265,0.27201 1.46199,0.55534 2.278,0.85 0.81598,0.27201 1.57532,0.61201 2.278,1.02 0.70265,0.40801 1.28065,0.90668 1.734,1.496 0.47598,0.56667 0.71398,1.29201 0.714,2.176 -2e-5,1.42801 -0.55535,2.53867 -1.666,3.332 -1.11068,0.77067 -2.86735,1.156 -5.27,1.156 -1.08801,0 -2.08534,-0.0907 -2.992,-0.272 -0.90667,-0.18133 -1.76801,-0.45333 -2.584,-0.816 l 0.544,-2.55 c 0.79333,0.36267 1.62066,0.66867 2.482,0.918 0.88399,0.22667 1.82466,0.34 2.822,0.34 2.56132,0 3.84198,-0.64599 3.842,-1.938"
           id="path3054"
           inkscape:connector-curvature="0" />
        <path
           d="m 424.36997,864.52673 c -0.58934,2e-5 -1.09934,-0.20398 -1.53,-0.612 -0.43068,-0.40798 -0.64601,-0.96331 -0.646,-1.666 -10e-6,-0.70264 0.21532,-1.25798 0.646,-1.666 0.43066,-0.40798 0.94066,-0.61197 1.53,-0.612 0.61199,3e-5 1.12199,0.20402 1.53,0.612 0.43065,0.40802 0.64599,0.96336 0.646,1.666 -1e-5,0.70269 -0.21535,1.25802 -0.646,1.666 -0.40801,0.40802 -0.91801,0.61202 -1.53,0.612 m -0.714,4.794 -4.556,0 0,-2.346 7.344,0 0,9.69 c -10e-6,1.56401 0.21532,2.61801 0.646,3.162 0.43065,0.52134 1.07665,0.782 1.938,0.782 0.65732,0 1.25798,-0.0793 1.802,-0.238 0.56665,-0.15866 1.00865,-0.32866 1.326,-0.51 l 0.408,2.38 c -0.13602,0.068 -0.32869,0.15867 -0.578,0.272 -0.24935,0.0907 -0.54402,0.18134 -0.884,0.272 -0.31735,0.0907 -0.68002,0.17 -1.088,0.238 -0.38535,0.068 -0.79335,0.102 -1.224,0.102 -0.99735,0 -1.82468,-0.136 -2.482,-0.408 -0.65735,-0.272 -1.19001,-0.68 -1.598,-1.224 -0.38534,-0.544 -0.65734,-1.21266 -0.816,-2.006 -0.15868,-0.81599 -0.23801,-1.75666 -0.238,-2.822 l 0,-7.344"
           id="path3056"
           inkscape:connector-curvature="0" />
        <path
           d="m 436.67797,867.41673 c 1.01999,-0.24932 2.02866,-0.44198 3.026,-0.578 1.01999,-0.13598 1.97199,-0.20398 2.856,-0.204 2.10799,2e-5 3.69465,0.54402 4.76,1.632 1.08798,1.08802 1.63198,2.83335 1.632,5.236 l 0,9.248 -2.788,0 0,-8.738 c -2e-5,-1.01999 -0.0907,-1.84732 -0.272,-2.482 -0.18135,-0.63465 -0.44202,-1.12199 -0.782,-1.462 -0.31735,-0.36265 -0.71401,-0.61198 -1.19,-0.748 -0.45335,-0.13598 -0.95201,-0.20398 -1.496,-0.204 -0.45335,2e-5 -0.94068,0.034 -1.462,0.102 -0.49868,0.0453 -0.98601,0.11335 -1.462,0.204 l 0,13.328 -2.822,0 0,-15.334"
           id="path3058"
           inkscape:connector-curvature="0" />
        <path
           d="m 456.19397,882.75073 -2.788,0 3.638,-15.198 c 0.92932,-0.27198 1.92665,-0.48732 2.992,-0.646 1.06532,-0.18131 2.02865,-0.27198 2.89,-0.272 0.90665,2e-5 1.68865,0.12469 2.346,0.374 0.65731,0.24935 1.18998,0.60068 1.598,1.054 0.40798,0.43068 0.70265,0.95202 0.884,1.564 0.20398,0.61201 0.30598,1.28068 0.306,2.006 -2e-5,0.47601 -0.0454,0.97468 -0.136,1.496 -0.0907,0.49868 -0.20402,1.00868 -0.34,1.53 l -1.938,8.092 -2.788,0 1.802,-7.48 c 0.13598,-0.56666 0.27198,-1.13332 0.408,-1.7 0.13598,-0.58932 0.20398,-1.15599 0.204,-1.7 -2e-5,-0.79332 -0.22668,-1.45065 -0.68,-1.972 -0.45335,-0.54398 -1.28068,-0.81598 -2.482,-0.816 -0.52135,2e-5 -1.03135,0.034 -1.53,0.102 -0.47601,0.0454 -0.87268,0.12468 -1.19,0.238 l -3.196,13.328"
           id="path3060"
           inkscape:connector-curvature="0" />
        <path
           d="m 478.73597,872.61873 c 0.47598,-0.52132 0.95198,-1.05399 1.428,-1.598 0.49865,-0.54399 0.97465,-1.06532 1.428,-1.564 0.45332,-0.52132 0.86131,-0.98598 1.224,-1.394 0.36265,-0.43065 0.64598,-0.79332 0.85,-1.088 l 3.026,0 c -0.13602,0.18135 -0.37402,0.47602 -0.714,0.884 -0.31736,0.38535 -0.69135,0.82735 -1.122,1.326 -0.43069,0.49868 -0.89535,1.03135 -1.394,1.598 -0.47602,0.54401 -0.94069,1.06535 -1.394,1.564 -0.45335,0.49868 -0.87268,0.96335 -1.258,1.394 -0.36268,0.40801 -0.64602,0.72534 -0.85,0.952 0.65732,1.29201 1.29198,2.58401 1.904,3.876 0.61198,1.29201 1.17865,2.686 1.7,4.182 l -2.958,0 c -0.40802,-1.11066 -0.81602,-2.13066 -1.224,-3.06 -0.38535,-0.92933 -0.82735,-1.90399 -1.326,-2.924 l -5.916,5.984 -3.264,0 7.922,-8.126 -3.91,-7.65 3.128,0 2.72,5.644"
           style="font-size:34px;font-style:italic;fill:#f9f9f9;-inkscape-font-specification:Ubuntu Mono Italic"
           id="path3062"
           inkscape:connector-curvature="0" />
        <path
           d="m 489.17397,886.38873 c 2.10799,-1.632 3.71732,-3.51333 4.828,-5.644 1.13332,-2.13066 1.69999,-4.45399 1.7,-6.97 -1e-5,-1.26932 -0.13601,-2.47065 -0.408,-3.604 -0.24935,-1.13332 -0.64601,-2.22132 -1.19,-3.264 -0.54401,-1.04265 -1.23535,-2.05131 -2.074,-3.026 -0.81601,-0.97464 -1.79068,-1.94931 -2.924,-2.924 l 1.53,-2.04 c 2.60665,1.92669 4.54465,4.17069 5.814,6.732 1.29198,2.53868 1.93798,5.22468 1.938,8.058 -2e-5,1.40534 -0.17002,2.78801 -0.51,4.148 -0.31735,1.36001 -0.80468,2.67467 -1.462,3.944 -0.63468,1.24667 -1.43935,2.42533 -2.414,3.536 -0.95201,1.13333 -2.07401,2.16466 -3.366,3.094 l -1.496,-2.04 0.034,0"
           id="path3064"
           inkscape:connector-curvature="0" />
      </g>
      <g
         style="font-size:40px;font-style:normal;font-variant:normal;font-weight:normal;font-stretch:normal;line-height:125%;letter-spacing:0px;word-spacing:0px;fill:#f9f9f9;fill-opacity:1;stroke:none;font-family:Ubuntu Mono;-inkscape-font-specification:Ubuntu Mono"
         id="text3055">
        <path
           d="m 127.35543,864.93025 c -0.11335,-0.22666 -0.21535,-0.46466 -0.306,-0.714 -0.0907,-0.272 -0.15868,-0.56666 -0.204,-0.884 -0.45335,0.408 -1.08801,0.816 -1.904,1.224 -0.79335,0.38534 -1.73401,0.578 -2.822,0.578 -1.76801,0 -3.07134,-0.53266 -3.91,-1.598 -0.81601,-1.06533 -1.22401,-2.41399 -1.224,-4.046 -10e-6,-1.35999 0.22666,-2.68599 0.68,-3.978 0.45333,-1.29199 1.13333,-2.44798 2.04,-3.468 0.92932,-1.01998 2.08532,-1.83598 3.468,-2.448 1.38265,-0.63465 2.99198,-0.95198 4.828,-0.952 0.27198,2e-5 0.57798,0.0113 0.918,0.034 0.36265,0.0227 0.72531,0.068 1.088,0.136 0.36265,0.068 0.71398,0.15869 1.054,0.272 0.36265,0.0907 0.67998,0.20402 0.952,0.34 l -2.312,9.52 c -0.11335,0.47601 -0.21535,0.92934 -0.306,1.36 -0.068,0.40801 -0.10202,0.85001 -0.102,1.326 -2e-5,0.47601 0.0453,0.95201 0.136,1.428 0.0907,0.45334 0.22665,0.96334 0.408,1.53 l -2.482,0.34 m -4.658,-2.108 c 0.86132,10e-6 1.62065,-0.18133 2.278,-0.544 0.67999,-0.36266 1.24665,-0.79333 1.7,-1.292 0.0226,-0.33999 0.0566,-0.72532 0.102,-1.156 0.068,-0.43066 0.14732,-0.83866 0.238,-1.224 l 1.87,-7.446 c -0.11335,-0.0453 -0.32868,-0.0793 -0.646,-0.102 -0.31735,-0.0453 -0.56668,-0.068 -0.748,-0.068 -1.15602,2e-5 -2.21001,0.22668 -3.162,0.68 -0.92935,0.45335 -1.73401,1.06535 -2.414,1.836 -0.68001,0.74801 -1.20134,1.62068 -1.564,2.618 -0.36268,0.97468 -0.54401,1.99468 -0.544,3.06 -1e-5,0.52134 0.0453,1.00868 0.136,1.462 0.0907,0.43067 0.23799,0.80467 0.442,1.122 0.22666,0.31734 0.52132,0.57801 0.884,0.782 0.38532,0.18134 0.86132,0.27201 1.428,0.272"
           style="font-size:34px;font-style:italic;fill:#f9f9f9;-inkscape-font-specification:Ubuntu Mono Italic"
           id="path3067"
           inkscape:connector-curvature="0" />
      </g>
      <g
         style="font-size:36px;font-style:normal;font-variant:normal;font-weight:normal;font-stretch:normal;line-height:125%;letter-spacing:0px;word-spacing:0px;fill:#f9f9f9;fill-opacity:1;stroke:none;font-family:Ubuntu Mono;-inkscape-font-specification:Ubuntu Mono"
         id="text3059">
        <path
           d="m 117.4657,872.78212 17.424,0 0,2.52 -17.424,0 0,-2.52"
           id="path3070"
           inkscape:connector-curvature="0" />
      </g>
      <g
         style="font-size:40px;font-style:normal;font-variant:normal;font-weight:normal;font-stretch:normal;line-height:125%;letter-spacing:0px;word-spacing:0px;fill:#f9f9f9;fill-opacity:1;stroke:none;font-family:Ubuntu Mono;-inkscape-font-specification:Ubuntu Mono"
         id="text3063">
        <path
           d="m 131.96277,887.52821 c -1e-5,0.72535 -0.14735,1.42801 -0.442,2.108 -0.27201,0.68001 -0.64601,1.34868 -1.122,2.006 -0.45335,0.65734 -0.97468,1.30334 -1.564,1.938 -0.58934,0.63468 -1.19001,1.25801 -1.802,1.87 -0.34001,0.34001 -0.73668,0.74801 -1.19,1.224 -0.45334,0.47601 -0.88401,0.96334 -1.292,1.462 -0.40801,0.49867 -0.74801,0.986 -1.02,1.462 -0.27201,0.476 -0.40801,0.884 -0.408,1.224 l 9.69,0 0,2.38 -12.75,0 c -0.0227,-0.11333 -0.034,-0.22667 -0.034,-0.34 0,-0.136 0,-0.26067 0,-0.374 0,-0.952 0.15866,-1.836 0.476,-2.652 0.31733,-0.816 0.72533,-1.58666 1.224,-2.312 0.49866,-0.72533 1.05399,-1.40533 1.666,-2.04 0.63466,-0.65733 1.25799,-1.29199 1.87,-1.904 0.49866,-0.49866 0.97466,-0.98599 1.428,-1.462 0.47599,-0.47599 0.88399,-0.95199 1.224,-1.428 0.36266,-0.47599 0.64599,-0.96332 0.85,-1.462 0.22666,-0.52132 0.33999,-1.05399 0.34,-1.598 -1e-5,-0.61198 -0.10201,-1.13332 -0.306,-1.564 -0.18134,-0.43065 -0.44201,-0.78198 -0.782,-1.054 -0.31734,-0.29465 -0.69134,-0.50998 -1.122,-0.646 -0.43068,-0.13598 -0.89534,-0.20398 -1.394,-0.204 -0.58934,2e-5 -1.13334,0.0794 -1.632,0.238 -0.47601,0.15868 -0.90667,0.35135 -1.292,0.578 -0.36267,0.22668 -0.68,0.45335 -0.952,0.68 -0.272,0.20402 -0.476,0.37402 -0.612,0.51 l -1.394,-1.972 c 0.18133,-0.20398 0.45333,-0.45331 0.816,-0.748 0.36266,-0.29465 0.79333,-0.56665 1.292,-0.816 0.52133,-0.27198 1.09933,-0.49865 1.734,-0.68 0.63466,-0.18131 1.31466,-0.27198 2.04,-0.272 2.19866,2e-5 3.81932,0.51002 4.862,1.53 1.06532,0.99735 1.59799,2.43668 1.598,4.318"
           style="font-size:34px;fill:#f9f9f9"
           id="path3073"
           inkscape:connector-curvature="0" />
      </g>
      <g
         transform="translate(0,16)"
         id="text3067"
         style="font-size:79.98180389px;font-style:normal;font-variant:normal;font-weight:normal;font-stretch:normal;line-height:125%;letter-spacing:0px;word-spacing:0px;fill:#f9f9f9;fill-opacity:1;stroke:none;font-family:Ubuntu Mono;-inkscape-font-specification:Ubuntu Mono">
        <path
           style="fill:#f9f9f9"
           sodipodi:nodetypes="cscccccsccccccccccc"
           inkscape:connector-curvature="0"
           id="path3112"
           d="m 184.77682,857.91255 c -2.61277,3.41258 -5.33214,6.82513 -8.15815,10.23767 -2.82604,3.41257 -5.03992,7.89778 -7.2794,11.09704 l 27.1354,0 0.0599,4.41943 -32.5526,0 0.003,-4.31493 c 1.81292,-2.93266 4.12919,-7.04248 6.95522,-10.56169 2.82601,-3.51918 5.67869,-7.11836 8.55805,-10.79754 -2.77272,-3.67914 -5.49209,-7.22499 -8.15814,-10.63758 -2.61275,-3.46584 -4.71894,-7.09298 -6.31857,-9.49248 l 0.0201,-3.70452 31.43284,0 -1e-5,3.67305 -26.44805,0 c 0.69316,1.01314 2.61959,4.13855 3.63271,5.52486 1.01308,1.38639 2.13283,2.87938 3.35923,4.47898 1.22637,1.59967 2.50608,3.27929 3.83913,5.03885 1.333,1.70631 2.63937,3.38593 3.91911,5.03886" />
      </g>
      <g
         id="text3071"
         style="font-size:40px;font-style:normal;font-variant:normal;font-weight:normal;font-stretch:normal;line-height:125%;letter-spacing:0px;word-spacing:0px;fill:#cccccc;fill-opacity:1;stroke:none;font-family:Ubuntu Mono;-inkscape-font-specification:Ubuntu Mono"
         transform="matrix(0,-0.59619526,0.59619526,0,81.060387,797.1516)">
        <path
           style="fill:#cccccc"
           inkscape:connector-curvature="0"
           id="path3076"
           d="m -60.611426,173.46437 c -1.8e-5,2.08001 -0.666684,3.76001 -2,5.04 -1.306682,1.28 -3.30668,1.92 -6,1.92 -1.546675,0 -2.826674,-0.2 -3.84,-0.6 -1.013339,-0.42666 -1.826671,-0.96 -2.44,-1.6 -0.58667,-0.66666 -1.013336,-1.39999 -1.28,-2.2 -0.240003,-0.79999 -0.360002,-1.58666 -0.36,-2.36 -2e-6,-1.41332 0.386664,-2.66665 1.16,-3.76 0.773329,-1.09332 1.693328,-1.97332 2.76,-2.64 -2.266671,-1.27998 -3.400003,-3.23998 -3.4,-5.88 -3e-6,-0.90664 0.17333,-1.77331 0.52,-2.6 0.346663,-0.82664 0.839996,-1.54664 1.48,-2.16 0.639994,-0.61331 1.413327,-1.10664 2.32,-1.48 0.933325,-0.37331 1.973324,-0.55997 3.12,-0.56 1.333322,3e-5 2.466654,0.20003 3.4,0.6 0.959985,0.40003 1.733318,0.92003 2.32,1.56 0.58665,0.61336 1.013316,1.30669 1.28,2.08 0.266649,0.74669 0.399982,1.48002 0.4,2.2 -1.8e-5,1.41335 -0.360017,2.64002 -1.08,3.68 -0.720016,1.01335 -1.546682,1.82668 -2.48,2.44 2.74665,1.30668 4.119982,3.41335 4.12,6.32 m -12.72,0.24 c -6e-6,0.42668 0.07999,0.88001 0.24,1.36 0.159994,0.45334 0.42666,0.88001 0.8,1.28 0.373326,0.40001 0.866659,0.73334 1.48,1 0.613325,0.24001 1.35999,0.36001 2.24,0.36 0.826655,10e-6 1.533321,-0.10666 2.12,-0.32 0.61332,-0.23999 1.106653,-0.54666 1.48,-0.92 0.399986,-0.39999 0.693319,-0.83999 0.88,-1.32 0.186652,-0.47999 0.279985,-0.95999 0.28,-1.44 -1.5e-5,-1.51999 -0.546681,-2.67999 -1.64,-3.48 -1.093346,-0.82665 -2.600011,-1.45332 -4.52,-1.88 -1.066675,0.58668 -1.89334,1.32001 -2.48,2.2 -0.586673,0.88001 -0.880006,1.93334 -0.88,3.16 m 8.96,-12.68 c -1.5e-5,-0.34664 -0.08002,-0.73331 -0.24,-1.16 -0.160014,-0.45331 -0.413347,-0.85331 -0.76,-1.2 -0.320013,-0.37331 -0.74668,-0.67997 -1.28,-0.92 -0.533345,-0.26664 -1.173344,-0.39997 -1.92,-0.4 -0.773343,3e-5 -1.426676,0.12003 -1.96,0.36 -0.506675,0.24003 -0.933341,0.54669 -1.28,0.92 -0.346673,0.34669 -0.600007,0.74669 -0.76,1.2 -0.13334,0.42669 -0.200006,0.85336 -0.2,1.28 -6e-6,1.09335 0.38666,2.12002 1.16,3.08 0.799992,0.93335 2.106657,1.61335 3.92,2.04 1.013321,-0.58665 1.81332,-1.27998 2.4,-2.08 0.613319,-0.79998 0.919985,-1.83998 0.92,-3.12" />
      </g>
      <g
         style="font-size:20.38310623px;font-style:normal;font-variant:normal;font-weight:normal;font-stretch:normal;line-height:125%;letter-spacing:0px;word-spacing:0px;fill:#cccccc;fill-opacity:1;stroke:none;font-family:Ubuntu Mono;-inkscape-font-specification:Ubuntu Mono"
         id="text3078">
        <path
           d="m 166.66995,907.1993 c 0.6,-0.14666 1.19333,-0.25999 1.78,-0.34 0.6,-0.08 1.16,-0.11999 1.68,-0.12 1.24,1e-5 2.17333,0.32001 2.8,0.96 0.64,0.64001 0.96,1.66667 0.96,3.08 l 0,5.44 -1.64,0 0,-5.14 c 0,-0.59999 -0.0533,-1.08666 -0.16,-1.46 -0.10667,-0.37333 -0.26,-0.65999 -0.46,-0.86 -0.18667,-0.21333 -0.42,-0.35999 -0.7,-0.44 -0.26667,-0.08 -0.56,-0.11999 -0.88,-0.12 -0.26667,10e-6 -0.55333,0.02 -0.86,0.06 -0.29333,0.0267 -0.58,0.0667 -0.86,0.12 l 0,7.84 -1.66,0 0,-9.02"
           style="font-size:20px;fill:#cccccc"
           id="path3077"
           inkscape:connector-curvature="0" />
        <path
           d="m 176.16995,912.1593 8.18,0 0,1.42 -8.18,0 0,-1.42 m 0,-3.8 8.18,0 0,1.42 -8.18,0 0,-1.42"
           style="font-size:20px;fill:#cccccc"
           id="path3079"
           inkscape:connector-curvature="0" />
        <path
           d="m 186.74995,906.3993 c 0.68,-0.26666 1.34,-0.59999 1.98,-1 0.64,-0.41332 1.23333,-0.93332 1.78,-1.56 l 1.16,0 0,10.98 2.34,0 0,1.4 -6.66,0 0,-1.4 2.68,0 0,-8.68 c -0.14667,0.13334 -0.32667,0.27334 -0.54,0.42 -0.2,0.13334 -0.42667,0.26668 -0.68,0.4 -0.24,0.13334 -0.49333,0.26001 -0.76,0.38 -0.26666,0.12001 -0.52666,0.22001 -0.78,0.3 l -0.52,-1.24"
           style="font-size:20px;fill:#cccccc"
           id="path3081"
           inkscape:connector-curvature="0" />
      </g>
      <g
         style="font-size:40px;font-style:normal;font-variant:normal;font-weight:normal;font-stretch:normal;line-height:125%;letter-spacing:0px;word-spacing:0px;fill:#cccccc;fill-opacity:1;stroke:none;font-family:Ubuntu Mono;-inkscape-font-specification:Ubuntu Mono"
         id="text3082">
        <path
           d="m 234.27715,880.05642 c 0.6,-0.14666 1.19333,-0.25999 1.78,-0.34 0.59999,-0.08 1.15999,-0.11999 1.68,-0.12 1.23999,1e-5 2.17332,0.32001 2.8,0.96 0.63999,0.64 0.95999,1.66667 0.96,3.08 l 0,5.44 -1.64,0 0,-5.14 c -1e-5,-0.6 -0.0533,-1.08666 -0.16,-1.46 -0.10668,-0.37333 -0.26001,-0.66 -0.46,-0.86 -0.18668,-0.21333 -0.42001,-0.36 -0.7,-0.44 -0.26667,-0.08 -0.56001,-0.12 -0.88,-0.12 -0.26667,0 -0.55334,0.02 -0.86,0.06 -0.29334,0.0267 -0.58001,0.0667 -0.86,0.12 l 0,7.84 -1.66,0 0,-9.02"
           style="font-size:20px;fill:#cccccc"
           id="path3084"
           inkscape:connector-curvature="0" />
      </g>
      <g
         style="font-size:40px;font-style:normal;font-variant:normal;font-weight:normal;font-stretch:normal;line-height:125%;letter-spacing:0px;word-spacing:0px;fill:#cccccc;fill-opacity:1;stroke:none;font-family:Ubuntu Mono;-inkscape-font-specification:Ubuntu Mono"
         id="text3082-3">
        <path
           d="m 385.67571,878.51076 c 0.59999,-0.14666 1.19333,-0.25999 1.78,-0.34 0.59999,-0.08 1.15999,-0.11999 1.68,-0.12 1.23999,1e-5 2.17332,0.32001 2.8,0.96 0.63999,0.64001 0.95999,1.66668 0.96,3.08 l 0,5.44 -1.64,0 0,-5.14 c -1e-5,-0.59999 -0.0533,-1.08666 -0.16,-1.46 -0.10668,-0.37332 -0.26001,-0.65999 -0.46,-0.86 -0.18668,-0.21332 -0.42001,-0.35999 -0.7,-0.44 -0.26668,-0.08 -0.56001,-0.11999 -0.88,-0.12 -0.26667,10e-6 -0.55334,0.02 -0.86,0.06 -0.29334,0.0267 -0.58001,0.0667 -0.86,0.12 l 0,7.84 -1.66,0 0,-9.02"
           style="font-size:20px;fill:#cccccc"
           id="path3087"
           inkscape:connector-curvature="0" />
      </g>
      <g
         style="font-size:40px;font-style:normal;font-variant:normal;font-weight:normal;font-stretch:normal;line-height:125%;letter-spacing:0px;word-spacing:0px;fill:#cccccc;fill-opacity:1;stroke:none;font-family:Ubuntu Mono;-inkscape-font-specification:Ubuntu Mono"
         id="text3107">
        <path
           d="m 140.77143,864.5793 c -1e-5,0.73334 -0.10668,1.4 -0.32,2 -0.20001,0.58667 -0.48668,1.09333 -0.86,1.52 -0.37334,0.42667 -0.82001,0.76 -1.34,1 -0.52001,0.22667 -1.08668,0.34 -1.7,0.34 -0.60001,0 -1.16001,-0.11333 -1.68,-0.34 -0.50667,-0.24 -0.94667,-0.57333 -1.32,-1 -0.37334,-0.42667 -0.66667,-0.93333 -0.88,-1.52 -0.2,-0.6 -0.3,-1.26666 -0.3,-2 0,-0.73333 0.1,-1.39999 0.3,-2 0.21333,-0.59999 0.50666,-1.10666 0.88,-1.52 0.37333,-0.42666 0.81333,-0.75333 1.32,-0.98 0.51999,-0.23999 1.07999,-0.35999 1.68,-0.36 0.61332,10e-6 1.17999,0.12001 1.7,0.36 0.51999,0.22667 0.96666,0.55334 1.34,0.98 0.37332,0.41334 0.65999,0.92001 0.86,1.52 0.21332,0.60001 0.31999,1.26667 0.32,2 m -1.7,0 c -1e-5,-1.05333 -0.22668,-1.87999 -0.68,-2.48 -0.45334,-0.61333 -1.06668,-0.91999 -1.84,-0.92 -0.76001,10e-6 -1.36667,0.30667 -1.82,0.92 -0.44001,0.60001 -0.66001,1.42667 -0.66,2.48 -1e-5,1.04 0.21999,1.86667 0.66,2.48 0.45333,0.6 1.05999,0.9 1.82,0.9 0.77332,0 1.38666,-0.3 1.84,-0.9 0.45332,-0.61333 0.67999,-1.44 0.68,-2.48"
           style="font-size:20px;fill:#cccccc"
           id="path3090"
           inkscape:connector-curvature="0" />
      </g>
    </g>
  </g>
</svg>
