<?xml version="1.0" encoding="UTF-8" standalone="no"?>
<!-- Created with Inkscape (http://www.inkscape.org/) -->

<svg
   xmlns:dc="http://purl.org/dc/elements/1.1/"
   xmlns:cc="http://creativecommons.org/ns#"
   xmlns:rdf="http://www.w3.org/1999/02/22-rdf-syntax-ns#"
   xmlns:svg="http://www.w3.org/2000/svg"
   xmlns="http://www.w3.org/2000/svg"
   xmlns:sodipodi="http://sodipodi.sourceforge.net/DTD/sodipodi-0.dtd"
   xmlns:inkscape="http://www.inkscape.org/namespaces/inkscape"
   width="524.40942"
   height="372.04724"
   id="svg2"
   version="1.1"
   inkscape:version="0.48.4 r9939"
   sodipodi:docname="postcard_logo_4_6_path.svg"
   inkscape:export-filename="/home/svet/Dropbox/falanster/design/postcards/for_falanster/postcard_logo_4_6_path.png"
   inkscape:export-xdpi="300"
   inkscape:export-ydpi="300">
  <defs
     id="defs4" />
  <sodipodi:namedview
     id="base"
     pagecolor="#ffffff"
     bordercolor="#666666"
     borderopacity="1.0"
     inkscape:pageopacity="0.0"
     inkscape:pageshadow="2"
     inkscape:zoom="0.98994949"
     inkscape:cx="355.28007"
     inkscape:cy="179.63955"
     inkscape:document-units="px"
     inkscape:current-layer="layer1"
     showgrid="false"
     inkscape:window-width="1301"
     inkscape:window-height="744"
     inkscape:window-x="65"
     inkscape:window-y="24"
     inkscape:window-maximized="1"
     showguides="true"
     inkscape:guide-bbox="true">
    <sodipodi:guide
       orientation="0,1"
       position="279.81226,16.162441"
       id="guide2999" />
    <sodipodi:guide
       orientation="1,0"
       position="17.172593,407.09148"
       id="guide3001" />
    <sodipodi:guide
       orientation="1,0"
       position="495.9849,304.05592"
       id="guide3003" />
  </sodipodi:namedview>
  <metadata
     id="metadata7">
    <rdf:RDF>
      <cc:Work
         rdf:about="">
        <dc:format>image/svg+xml</dc:format>
        <dc:type
           rdf:resource="http://purl.org/dc/dcmitype/StillImage" />
        <dc:title></dc:title>
      </cc:Work>
    </rdf:RDF>
  </metadata>
  <g
     inkscape:label="Layer 1"
     inkscape:groupmode="layer"
     id="layer1"
     transform="translate(0,-680.31491)">
    <path
       style="fill:#333333;fill-opacity:1;fill-rule:nonzero;stroke:none"
       d="m 0,680.31488 524.40942,0 0,372.04722 -524.40942,0 z"
       id="rect2985" />
    <path
       style="opacity:0.8;fill:#00ff00;fill-opacity:1;stroke:#00ff00;stroke-width:1.61482394"
       d="m 213.97955,681.12256 99.5658,0 0,370.43214 -99.5658,0 z"
       id="rect2989" />
    <path
       style="opacity:0.65;fill:#ff0000;fill-opacity:1;stroke:#ff0000;stroke-width:1.15582049"
       d="m 112.40289,938.47723 302.42322,0 0,49.78128 -302.42322,0 z"
       id="rect2991-1" />
    <path
       style="opacity:0.75;fill:#0000ff;fill-opacity:1;stroke:#0000ff;stroke-width:1.19487262"
       d="m 60.784878,786.59583 100.271782,0 0,150.71019 -100.271782,0 z"
       id="rect3031" />
    <path
       style="opacity:0.4;fill:#ff00ff;fill-opacity:1;stroke:#ff00ff;stroke-width:1.21965647"
       d="m 112.37243,735.87421 48.76226,0 0,252.27713 -48.76226,0 z"
       id="rect3011" />
    <path
       style="opacity:0.45;fill:#00ffff;fill-opacity:1;stroke:#00ffff;stroke-width:1.15377951"
       d="m 112.3395,735.84125 302.63825,0 0,49.57036 -302.63825,0 z"
       id="rect2991" />
    <g
       style="font-size:17.22169495px;font-style:normal;font-variant:normal;font-weight:normal;font-stretch:normal;line-height:125%;letter-spacing:0px;word-spacing:0px;fill:#4d4d4d;fill-opacity:1;stroke:none;font-family:Ubuntu;-inkscape-font-specification:Ubuntu"
       id="text2995">
      <path
         d="m 221.61387,1022.4404 c 0.48465,0 0.89837,0.036 1.24118,0.1064 0.35461,0.071 0.60284,0.136 0.7447,0.1951 l -0.30143,1.4184 c -0.14185,-0.071 -0.3428,-0.1359 -0.60285,-0.195 -0.26006,-0.071 -0.57922,-0.1064 -0.95748,-0.1064 -0.76835,0 -1.30619,0.2128 -1.61352,0.6383 -0.30734,0.4138 -0.46101,0.9752 -0.46101,1.6845 l 0,0.7979 3.54621,0 0,1.383 -3.54621,0 0,7.8371 -1.64898,0 0,-10.0535 c -1e-5,-1.182 0.2896,-2.0922 0.86882,-2.7306 0.57921,-0.6501 1.4894,-0.9752 2.73057,-0.9752"
         style="font-size:17.73102951px;fill:#4d4d4d"
         id="path3007" />
      <path
         d="m 227.99206,1035.0117 c 0.39008,0 0.73288,-0.01 1.0284,-0.018 0.30733,-0.024 0.56147,-0.059 0.76243,-0.1064 l 0,-2.7483 c -0.11821,-0.059 -0.31325,-0.1064 -0.58512,-0.1418 -0.26006,-0.047 -0.57922,-0.071 -0.95748,-0.071 -0.24824,0 -0.5142,0.018 -0.79789,0.053 -0.27188,0.035 -0.52603,0.1123 -0.76244,0.2305 -0.22459,0.1064 -0.41372,0.2601 -0.56739,0.461 -0.15367,0.1892 -0.23051,0.4433 -0.2305,0.7625 -1e-5,0.591 0.18912,1.0047 0.56739,1.2411 0.37826,0.2246 0.89246,0.3369 1.5426,0.3369 m -0.14185,-8.2626 c 0.66195,0 1.21753,0.089 1.66672,0.2659 0.461,0.1655 0.82744,0.4079 1.09932,0.727 0.28369,0.3074 0.48464,0.6797 0.60286,1.1171 0.11819,0.4255 0.1773,0.8983 0.17731,1.4184 l 0,5.7626 c -0.14186,0.024 -0.34281,0.059 -0.60286,0.1064 -0.24824,0.035 -0.53194,0.071 -0.85109,0.1064 -0.31916,0.035 -0.66787,0.065 -1.04613,0.089 -0.36645,0.035 -0.73289,0.053 -1.09932,0.053 -0.52012,0 -0.99885,-0.053 -1.43622,-0.1595 -0.43736,-0.1064 -0.81563,-0.2719 -1.13478,-0.4965 -0.31916,-0.2364 -0.5674,-0.5438 -0.74471,-0.922 -0.17731,-0.3783 -0.26596,-0.8334 -0.26596,-1.3653 0,-0.5083 0.10047,-0.9457 0.30143,-1.3121 0.21277,-0.3664 0.49646,-0.662 0.85109,-0.8866 0.35461,-0.2245 0.76834,-0.39 1.24117,-0.4964 0.47282,-0.1064 0.96929,-0.1596 1.4894,-0.1596 0.16549,0 0.33689,0.012 0.5142,0.035 0.17731,0.012 0.3428,0.035 0.49647,0.071 0.16549,0.024 0.30734,0.047 0.42555,0.071 0.1182,0.024 0.20094,0.041 0.24823,0.053 l 0,-0.461 c 0,-0.2719 -0.0296,-0.5378 -0.0887,-0.7979 -0.0591,-0.2719 -0.1655,-0.5083 -0.31916,-0.7092 -0.15368,-0.2128 -0.36645,-0.3783 -0.63832,-0.4965 -0.26006,-0.13 -0.60286,-0.195 -1.0284,-0.195 -0.54375,0 -1.02249,0.041 -1.43621,0.1241 -0.40191,0.071 -0.70333,0.1477 -0.90428,0.2305 l -0.19505,-1.3653 c 0.21277,-0.095 0.5674,-0.1832 1.06387,-0.266 0.49646,-0.095 1.0343,-0.1418 1.61352,-0.1418"
         style="font-size:17.73102951px;fill:#4d4d4d"
         id="path3009" />
      <path
         d="m 236.88389,1036.377 c -1.01658,-0.024 -1.73764,-0.2423 -2.16318,-0.656 -0.42555,-0.4138 -0.63832,-1.058 -0.63832,-1.9327 l 0,-11.0642 1.64899,-0.2837 0,11.0819 c -1e-5,0.2719 0.0236,0.4965 0.0709,0.6738 0.0473,0.1773 0.12411,0.3192 0.2305,0.4255 0.10639,0.1064 0.24823,0.1892 0.42555,0.2483 0.1773,0.047 0.39599,0.089 0.65605,0.1241 l -0.23051,1.383"
         style="font-size:17.73102951px;fill:#4d4d4d"
         id="path3011" />
      <path
         d="m 242.08684,1035.0117 c 0.39008,0 0.73288,-0.01 1.0284,-0.018 0.30733,-0.024 0.56148,-0.059 0.76244,-0.1064 l 0,-2.7483 c -0.11822,-0.059 -0.31326,-0.1064 -0.58513,-0.1418 -0.26006,-0.047 -0.57922,-0.071 -0.95747,-0.071 -0.24824,0 -0.51421,0.018 -0.7979,0.053 -0.27188,0.035 -0.52602,0.1123 -0.76243,0.2305 -0.2246,0.1064 -0.41373,0.2601 -0.5674,0.461 -0.15367,0.1892 -0.2305,0.4433 -0.2305,0.7625 0,0.591 0.18913,1.0047 0.56739,1.2411 0.37826,0.2246 0.89246,0.3369 1.5426,0.3369 m -0.14185,-8.2626 c 0.66196,0 1.21753,0.089 1.66672,0.2659 0.461,0.1655 0.82744,0.4079 1.09932,0.727 0.28369,0.3074 0.48465,0.6797 0.60286,1.1171 0.1182,0.4255 0.1773,0.8983 0.17731,1.4184 l 0,5.7626 c -0.14186,0.024 -0.34281,0.059 -0.60285,0.1064 -0.24825,0.035 -0.53194,0.071 -0.85109,0.1064 -0.31917,0.035 -0.66788,0.065 -1.04613,0.089 -0.36645,0.035 -0.73289,0.053 -1.09933,0.053 -0.52011,0 -0.99885,-0.053 -1.43621,-0.1595 -0.43737,-0.1064 -0.81563,-0.2719 -1.13479,-0.4965 -0.31916,-0.2364 -0.56739,-0.5438 -0.7447,-0.922 -0.17731,-0.3783 -0.26597,-0.8334 -0.26597,-1.3653 0,-0.5083 0.10048,-0.9457 0.30143,-1.3121 0.21277,-0.3664 0.49647,-0.662 0.85109,-0.8866 0.35462,-0.2245 0.76834,-0.39 1.24117,-0.4964 0.47283,-0.1064 0.96929,-0.1596 1.48941,-0.1596 0.16548,0 0.33688,0.012 0.5142,0.035 0.1773,0.012 0.34279,0.035 0.49647,0.071 0.16548,0.024 0.30733,0.047 0.42554,0.071 0.1182,0.024 0.20095,0.041 0.24824,0.053 l 0,-0.461 c -1e-5,-0.2719 -0.0296,-0.5378 -0.0887,-0.7979 -0.0591,-0.2719 -0.16549,-0.5083 -0.31916,-0.7092 -0.15367,-0.2128 -0.36644,-0.3783 -0.63831,-0.4965 -0.26006,-0.13 -0.60286,-0.195 -1.0284,-0.195 -0.54376,0 -1.0225,0.041 -1.43622,0.1241 -0.4019,0.071 -0.70333,0.1477 -0.90428,0.2305 l -0.19504,-1.3653 c 0.21277,-0.095 0.56739,-0.1832 1.06386,-0.266 0.49647,-0.095 1.03431,-0.1418 1.61352,-0.1418"
         style="font-size:17.73102951px;fill:#4d4d4d"
         id="path3013" />
      <path
         d="m 248.21264,1027.2455 c 0.37826,-0.094 0.88063,-0.195 1.50713,-0.3014 0.6265,-0.1064 1.34756,-0.1596 2.16319,-0.1596 0.73288,0 1.34164,0.1064 1.82629,0.3192 0.48465,0.2009 0.86882,0.4906 1.15252,0.8688 0.29551,0.3665 0.50237,0.8097 0.62059,1.3298 0.1182,0.5202 0.1773,1.0935 0.17731,1.7199 l 0,5.1775 -1.64899,0 0,-4.8228 c 0,-0.5674 -0.0414,-1.0521 -0.12411,-1.454 -0.0709,-0.4019 -0.19505,-0.7269 -0.37236,-0.9752 -0.17731,-0.2482 -0.41373,-0.4255 -0.70924,-0.5319 -0.29552,-0.1182 -0.66196,-0.1773 -1.09932,-0.1773 -0.17732,0 -0.36054,0.01 -0.54966,0.018 -0.18914,0.012 -0.37236,0.03 -0.54967,0.053 -0.16549,0.012 -0.31916,0.03 -0.461,0.053 -0.13003,0.024 -0.2246,0.041 -0.2837,0.053 l 0,7.7839 -1.64898,0 0,-8.9542"
         style="font-size:17.73102951px;fill:#4d4d4d"
         id="path3015" />
      <path
         d="m 260.53958,1035.0117 c 0.67377,0 1.17024,-0.089 1.48941,-0.2659 0.33097,-0.1773 0.49646,-0.461 0.49647,-0.8511 -1e-5,-0.4019 -0.15959,-0.7211 -0.47874,-0.9575 -0.31917,-0.2364 -0.84519,-0.5024 -1.57806,-0.7979 -0.35463,-0.1418 -0.69743,-0.2837 -1.0284,-0.4255 -0.31916,-0.1537 -0.59695,-0.331 -0.83336,-0.532 -0.23642,-0.2009 -0.42555,-0.4432 -0.5674,-0.7269 -0.14184,-0.2837 -0.21277,-0.6324 -0.21277,-1.0462 0,-0.8156 0.30143,-1.4598 0.90429,-1.9327 0.60285,-0.4846 1.42438,-0.7269 2.46461,-0.7269 0.26005,0 0.5201,0.018 0.78016,0.053 0.26005,0.024 0.50238,0.059 0.72698,0.1063 0.22458,0.035 0.41962,0.077 0.58512,0.1242 0.1773,0.047 0.31324,0.089 0.40781,0.1241 l -0.30142,1.4185 c -0.17732,-0.095 -0.45511,-0.1892 -0.83336,-0.2837 -0.37827,-0.1064 -0.83337,-0.1596 -1.36529,-0.1596 -0.46101,0 -0.86292,0.095 -1.20571,0.2837 -0.3428,0.1773 -0.5142,0.461 -0.5142,0.8511 0,0.2009 0.0355,0.3782 0.10638,0.5319 0.0827,0.1537 0.20095,0.2955 0.35463,0.4256 0.16548,0.1182 0.36643,0.2305 0.60285,0.3368 0.23641,0.1064 0.52011,0.2187 0.85109,0.3369 0.43736,0.1655 0.82744,0.331 1.17025,0.4965 0.34279,0.1537 0.6324,0.3369 0.86882,0.5497 0.24823,0.2127 0.43736,0.4728 0.56739,0.7801 0.13002,0.2955 0.19503,0.662 0.19504,1.0993 -10e-6,0.8511 -0.31916,1.4954 -0.95747,1.9327 -0.62651,0.4374 -1.52488,0.6561 -2.69512,0.6561 -0.81563,0 -1.45395,-0.071 -1.91495,-0.2128 -0.46101,-0.13 -0.77426,-0.2305 -0.93975,-0.3014 l 0.30143,-1.4185 c 0.18913,0.071 0.49056,0.1773 0.90428,0.3192 0.41373,0.1418 0.96339,0.2127 1.64899,0.2127"
         style="font-size:17.73102951px;fill:#4d4d4d"
         id="path3017" />
      <path
         d="m 267.83258,1026.9796 3.49301,0 0,1.383 -3.49301,0 0,4.2554 c -1e-5,0.461 0.0355,0.8452 0.10638,1.1526 0.0709,0.2955 0.17731,0.5319 0.31916,0.7092 0.14185,0.1655 0.31916,0.2837 0.53193,0.3546 0.21277,0.071 0.461,0.1064 0.74471,0.1064 0.49646,0 0.89245,-0.053 1.18797,-0.1596 0.30734,-0.1182 0.52011,-0.2009 0.63832,-0.2482 l 0.31916,1.3653 c -0.1655,0.083 -0.4551,0.1832 -0.86882,0.3014 -0.41373,0.13 -0.88656,0.195 -1.41848,0.195 -0.6265,0 -1.14661,-0.077 -1.56033,-0.2305 -0.40191,-0.1654 -0.72698,-0.4078 -0.97521,-0.7269 -0.24824,-0.3192 -0.42555,-0.7093 -0.53193,-1.1703 -0.0946,-0.4728 -0.14185,-1.0166 -0.14185,-1.6312 l 0,-8.2272 1.64899,-0.2837 0,2.8547"
         style="font-size:17.73102951px;fill:#4d4d4d"
         id="path3019" />
      <path
         d="m 272.73659,1031.6074 c 0,-0.8157 0.1182,-1.5249 0.35462,-2.1278 0.23641,-0.6146 0.54966,-1.1229 0.93974,-1.5248 0.39008,-0.4019 0.83927,-0.7033 1.34756,-0.9043 0.50829,-0.2009 1.0284,-0.3014 1.56033,-0.3014 1.24117,0 2.19273,0.3901 2.8547,1.1702 0.66195,0.7684 0.99293,1.9445 0.99294,3.5285 -10e-6,0.071 -10e-6,0.1655 0,0.2837 -10e-6,0.1064 -0.006,0.2069 -0.0177,0.3014 l -6.31224,0 c 0.0709,0.9575 0.34871,1.6845 0.83336,2.1809 0.48464,0.4965 1.24116,0.7447 2.26957,0.7447 0.57921,0 1.06385,-0.047 1.45394,-0.1418 0.4019,-0.1064 0.70333,-0.2069 0.90429,-0.3014 l 0.2305,1.383 c -0.20096,0.1064 -0.55558,0.2187 -1.06386,0.3369 -0.49648,0.1182 -1.06387,0.1773 -1.70218,0.1773 -0.80381,0 -1.50123,-0.1182 -2.09226,-0.3546 -0.57922,-0.2483 -1.05796,-0.5852 -1.43622,-1.0107 -0.37826,-0.4256 -0.66196,-0.9279 -0.85109,-1.5071 -0.17731,-0.5911 -0.26596,-1.2353 -0.26596,-1.9327 m 6.32998,-0.9043 c 0.0118,-0.7447 -0.17732,-1.3535 -0.5674,-1.8263 -0.37827,-0.4846 -0.90429,-0.727 -1.57806,-0.727 -0.37827,0 -0.71515,0.077 -1.01067,0.2305 -0.2837,0.1419 -0.52602,0.331 -0.72697,0.5674 -0.20095,0.2364 -0.36053,0.5083 -0.47874,0.8156 -0.10639,0.3074 -0.17731,0.6206 -0.21277,0.9398 l 4.57461,0"
         style="font-size:17.73102951px;fill:#4d4d4d"
         id="path3021" />
      <path
         d="m 286.55959,1026.7845 c 0.14184,0 0.30142,0.012 0.47874,0.035 0.18912,0.012 0.37234,0.035 0.54966,0.071 0.1773,0.024 0.33688,0.053 0.47874,0.089 0.15366,0.024 0.26595,0.047 0.33688,0.071 l -0.28369,1.4362 c -0.13004,-0.047 -0.34872,-0.1005 -0.65605,-0.1596 -0.29552,-0.071 -0.67969,-0.1063 -1.15252,-0.1064 -0.30734,10e-5 -0.61468,0.035 -0.92201,0.1064 -0.29552,0.059 -0.49056,0.1005 -0.58512,0.1241 l 0,7.7485 -1.64899,0 0,-8.83 c 0.39008,-0.1419 0.87473,-0.2719 1.45394,-0.3901 0.57921,-0.13 1.22935,-0.1951 1.95042,-0.1951"
         style="font-size:17.73102951px;fill:#4d4d4d"
         id="path3023" />
      <path
         d="m 290.9929,1035.2422 c 0,0.3192 -0.10639,0.597 -0.31915,0.8334 -0.21278,0.2364 -0.50239,0.3546 -0.86883,0.3546 -0.36644,0 -0.65604,-0.1182 -0.86882,-0.3546 -0.21277,-0.2364 -0.31916,-0.5142 -0.31915,-0.8334 -10e-6,-0.3191 0.10638,-0.5969 0.31915,-0.8333 0.21278,-0.2364 0.50238,-0.3546 0.86882,-0.3546 0.36644,0 0.65605,0.1182 0.86883,0.3546 0.21276,0.2364 0.31915,0.5142 0.31915,0.8333"
         style="font-size:17.73102951px;fill:#4d4d4d"
         id="path3025" />
      <path
         d="m 295.05497,1027.3874 c 0.20095,-0.13 0.50238,-0.266 0.90428,-0.4078 0.41372,-0.1419 0.88655,-0.2128 1.41849,-0.2128 0.66195,0 1.24707,0.1182 1.75537,0.3546 0.5201,0.2364 0.95747,0.5674 1.31209,0.993 0.35462,0.4255 0.62058,0.9338 0.7979,1.5248 0.18912,0.5911 0.28369,1.2412 0.2837,1.9504 -10e-6,0.7447 -0.11231,1.4185 -0.33689,2.0214 -0.21278,0.591 -0.52012,1.0934 -0.92202,1.5071 -0.40191,0.4137 -0.88656,0.7329 -1.45394,0.9575 -0.5674,0.2246 -1.20572,0.3369 -1.91495,0.3369 -0.76835,0 -1.44804,-0.053 -2.03907,-0.1596 -0.59104,-0.1064 -1.07568,-0.2128 -1.45394,-0.3192 l 0,-13.2096 1.64898,-0.2837 0,4.947 m 0,7.3761 c 0.16549,0.047 0.39599,0.095 0.69151,0.1418 0.30734,0.036 0.6856,0.053 1.13479,0.053 0.88654,0 1.59578,-0.2896 2.12772,-0.8688 0.53192,-0.591 0.79789,-1.4244 0.7979,-2.5001 -1e-5,-0.4728 -0.0473,-0.9161 -0.14185,-1.3298 -0.0946,-0.4137 -0.24824,-0.7683 -0.46101,-1.0638 -0.21278,-0.3074 -0.49056,-0.5438 -0.83336,-0.7093 -0.33098,-0.1773 -0.73288,-0.2659 -1.20571,-0.266 -0.44919,10e-5 -0.86291,0.077 -1.24117,0.2305 -0.37826,0.1537 -0.66787,0.3133 -0.86882,0.4788 l 0,5.8335"
         style="font-size:17.73102951px;fill:#4d4d4d"
         id="path3027" />
      <path
         d="m 302.54051,1037.9196 c 0.13003,0.059 0.29552,0.1123 0.49647,0.1596 0.21277,0.059 0.41963,0.089 0.62059,0.089 0.65013,-10e-5 1.15842,-0.1478 1.52486,-0.4433 0.36644,-0.2837 0.69742,-0.7506 0.99294,-1.4008 -0.7447,-1.4185 -1.44212,-2.9197 -2.09226,-4.5037 -0.63832,-1.5957 -1.17025,-3.2093 -1.59579,-4.8405 l 1.7731,0 c 0.13003,0.5319 0.28369,1.1052 0.46101,1.7199 0.18913,0.6147 0.39599,1.2471 0.62058,1.8972 0.22459,0.6501 0.46692,1.3003 0.72698,1.9504 0.26005,0.6502 0.53192,1.2767 0.81562,1.8795 0.44918,-1.2412 0.83927,-2.4705 1.17025,-3.6881 0.33097,-1.2175 0.64422,-2.4705 0.93975,-3.7589 l 1.70217,0 c -0.42555,1.7376 -0.89838,3.4102 -1.41848,5.0179 -0.52012,1.5957 -1.0816,3.0911 -1.68445,4.4859 -0.23641,0.5319 -0.48465,0.987 -0.7447,1.3653 -0.24824,0.3901 -0.52602,0.7092 -0.83336,0.9575 -0.30734,0.2482 -0.65605,0.4314 -1.04613,0.5496 -0.37826,0.1182 -0.80972,0.1773 -1.29436,0.1773 -0.13003,0 -0.26597,-0.012 -0.40782,-0.035 -0.14185,-0.012 -0.28369,-0.035 -0.42554,-0.071 -0.13003,-0.024 -0.25415,-0.053 -0.37235,-0.089 -0.10639,-0.035 -0.18322,-0.065 -0.23051,-0.089 l 0.30143,-1.3298"
         style="font-size:17.73102951px;fill:#4d4d4d"
         id="path3029" />
    </g>
    <path
       style="opacity:0.6;fill:#ffff00;fill-opacity:1;stroke:#ffff00;stroke-width:1.19301176"
       d="m 365.74326,786.58197 99.95421,0 0,150.71849 -99.95421,0 z"
       id="rect3031-4" />
    <path
       style="opacity:0.55;fill:#ff6600;fill-opacity:1;stroke:#ff6600;stroke-width:1.22489357"
       d="m 365.72266,735.87677 49.18294,0 0,252.27187 -49.18294,0 z"
       id="rect3011-3" />
    <g
       id="g3055"
       transform="matrix(1.6842837,0,0,1.6842837,-871.89472,-614.7809)"
       style="fill:#ffffff">
      <g
         style="font-size:49.1496315px;font-style:normal;font-variant:normal;font-weight:normal;font-stretch:normal;line-height:125%;letter-spacing:0px;word-spacing:0px;opacity:0.58999999;fill:#ffffff;fill-opacity:1;stroke:none;font-family:Ubuntu Mono;-inkscape-font-specification:Ubuntu Mono"
         id="text3133">
        <path
           d="m 553.78242,843.18153 c -10e-6,-2.06427 0.32766,-3.85004 0.98299,-5.35731 0.65532,-1.50724 1.5564,-2.75236 2.70323,-3.73537 1.14682,-0.98297 2.47385,-1.70383 3.98112,-2.16259 1.54001,-0.49147 3.17833,-0.73722 4.91496,-0.73724 1.11404,2e-5 2.21172,0.0819 3.29303,0.24575 1.11404,0.13109 2.29363,0.39322 3.53877,0.78639 l -0.93384,3.48963 c -1.08131,-0.39318 -2.08069,-0.63893 -2.99813,-0.73725 -0.88471,-0.13104 -1.78579,-0.19658 -2.70323,-0.1966 -1.1796,2e-5 -2.29366,0.16386 -3.34217,0.4915 -1.04854,0.29492 -1.966,0.78641 -2.75238,1.47449 -0.75364,0.65534 -1.35982,1.52365 -1.81854,2.60493 -0.45874,1.04854 -0.6881,2.32643 -0.68809,3.83367 -10e-6,1.44173 0.21297,2.68686 0.63894,3.73537 0.42596,1.01577 1.01575,1.86769 1.76939,2.55578 0.78638,0.65534 1.72022,1.14683 2.80153,1.47449 1.08128,0.32767 2.27725,0.4915 3.58792,0.4915 1.04851,0 2.04788,-0.0492 2.99813,-0.14745 0.98297,-0.13106 2.04788,-0.39319 3.19472,-0.78639 l 0.5898,3.39132 c -1.14685,0.42596 -2.31005,0.72086 -3.48963,0.88469 -1.1796,0.1966 -2.45749,0.2949 -3.83367,0.2949 -1.83493,0 -3.5224,-0.24575 -5.06241,-0.73724 -1.50726,-0.52427 -2.81792,-1.27789 -3.93197,-2.26089 -1.0813,-0.98299 -1.93322,-2.21173 -2.55578,-3.68622 -0.5898,-1.50725 -0.8847,-3.24387 -0.88469,-5.20986"
           style=""
           id="path3034" />
        <path
           d="m 588.48206,851.63527 c 1.01574,0 1.91682,-0.0328 2.70323,-0.0983 0.81914,-0.0655 1.49085,-0.14745 2.01513,-0.24575 l 0,-6.78265 c -0.52428,-0.16382 -1.16322,-0.29489 -1.91683,-0.3932 -0.72088,-0.0983 -1.49089,-0.14743 -2.31004,-0.14745 -0.75364,2e-5 -1.49088,0.0655 -2.21173,0.1966 -0.72087,0.0983 -1.35982,0.29491 -1.91684,0.5898 -0.55703,0.29491 -1.01576,0.6881 -1.37619,1.17959 -0.36043,0.45874 -0.54065,1.04853 -0.54064,1.76939 -10e-6,1.47449 0.49149,2.50663 1.47449,3.09642 1.01575,0.55704 2.37555,0.83555 4.07942,0.83555 m -0.3932,-20.44625 c 1.70384,2e-5 3.12918,0.21301 4.27602,0.63895 1.17957,0.42598 2.1298,1.01578 2.85068,1.76938 0.72084,0.75365 1.22872,1.67111 1.52363,2.75238 0.29488,1.08131 0.44233,2.2609 0.44235,3.53878 l 0,14.25339 c -0.95025,0.16383 -2.21175,0.36043 -3.78452,0.58979 -1.54004,0.22937 -3.12921,0.34405 -4.76751,0.34405 -1.24514,0 -2.4575,-0.11468 -3.63708,-0.34405 -1.1796,-0.19659 -2.22812,-0.55703 -3.14557,-1.08129 -0.91747,-0.55703 -1.65471,-1.31065 -2.21174,-2.26088 -0.55703,-0.95022 -0.83554,-2.16258 -0.83554,-3.63707 0,-1.31065 0.27851,-2.40833 0.83554,-3.29303 0.58979,-0.91745 1.32704,-1.65469 2.21174,-2.21173 0.91745,-0.55702 1.94959,-0.95022 3.09642,-1.17959 1.17958,-0.26212 2.35917,-0.39319 3.53878,-0.3932 1.60554,10e-6 3.17832,0.18023 4.71836,0.54065 l 0,-1.13045 c -2e-5,-0.68808 -0.0819,-1.3434 -0.24575,-1.96598 -0.13108,-0.65531 -0.40959,-1.24511 -0.83554,-1.76939 -0.39321,-0.52424 -0.95024,-0.93382 -1.67109,-1.22874 -0.68811,-0.32764 -1.58918,-0.49148 -2.70323,-0.4915 -1.40896,2e-5 -2.6377,0.0983 -3.68622,0.2949 -1.04853,0.19662 -1.85131,0.39322 -2.40833,0.5898 l -0.4915,-3.34218 c 0.55702,-0.26211 1.47448,-0.49147 2.75238,-0.68809 1.31065,-0.19658 2.70322,-0.29488 4.17772,-0.2949"
           style=""
           id="path3036" />
        <path
           d="m 621.41231,851.09462 1.91683,0 0,9.78078 -3.83367,0 0,-6.3403 -15.48213,0 0,-22.80543 4.07942,0 0,19.36495 9.28928,0 0,-19.36495 4.03027,0 0,19.36495"
           style=""
           id="path3038" />
        <path
           d="m 633.94547,843.23068 c -0.52427,10e-6 -1.03215,0.0328 -1.52364,0.0983 -0.45874,0.0328 -0.8847,0.13108 -1.27789,0.2949 l 0,7.81479 c 0.26212,0.0655 0.6717,0.13107 1.22874,0.1966 0.55702,0.0328 1.04852,0.0492 1.47449,0.0492 1.08128,0 1.94959,-0.32766 2.60493,-0.983 0.68808,-0.68809 1.03213,-1.78576 1.03214,-3.29302 -10e-6,-1.47448 -0.37683,-2.53939 -1.13044,-3.19473 -0.75364,-0.65531 -1.55642,-0.98298 -2.40833,-0.98299 m -6.6352,-11.50101 3.83367,0 0,8.69948 c 0.36042,-0.0983 0.83554,-0.19658 1.42534,-0.2949 0.62255,-0.13105 1.2615,-0.19658 1.91683,-0.1966 0.91745,2e-5 1.78576,0.14747 2.60493,0.44235 0.85192,0.26215 1.58916,0.68811 2.21174,1.27789 0.65531,0.58981 1.16319,1.35982 1.52364,2.31003 0.39318,0.95024 0.58977,2.08068 0.58979,3.39133 -2e-5,2.75238 -0.72088,4.71837 -2.16258,5.89795 -1.40897,1.1796 -3.24389,1.76939 -5.50476,1.76939 -1.14683,0 -2.24451,-0.0819 -3.29303,-0.24575 -1.01576,-0.13106 -2.06428,-0.37681 -3.14557,-0.73724 l 0,-22.31393 m 20.15135,22.80543 -3.83368,0 0,-22.80543 3.83368,0 0,22.80543"
           style=""
           id="path3040" />
        <path
           d="m 663.23865,845.68816 c -0.45875,10e-6 -0.90109,10e-6 -1.32704,0 -0.39321,-0.0328 -0.77003,-0.0655 -1.13045,-0.0983 -0.95023,1.40897 -1.85131,2.91622 -2.70323,4.52177 -0.85193,1.57279 -1.62194,3.04728 -2.31003,4.42347 l -4.12857,0 c 0.36043,-0.85193 0.77001,-1.72024 1.22874,-2.60494 0.45873,-0.91745 0.93384,-1.78576 1.42534,-2.60493 0.49149,-0.85192 0.98299,-1.65469 1.47449,-2.40833 0.49149,-0.78638 0.9666,-1.47448 1.42534,-2.06428 -1.63833,-0.58979 -2.75238,-1.42533 -3.34217,-2.50663 -0.55704,-1.11405 -0.83555,-2.29364 -0.83555,-3.53878 0,-1.27787 0.22936,-2.39193 0.6881,-3.34217 0.49149,-0.95021 1.1632,-1.7366 2.01513,-2.35918 0.85192,-0.65531 1.8513,-1.14681 2.99813,-1.47449 1.17958,-0.32764 2.45747,-0.49148 3.83367,-0.4915 1.9332,2e-5 3.55514,0.0819 4.86581,0.24575 1.31064,0.16385 2.4247,0.37684 3.34218,0.63894 l 0,22.51054 -4.07942,0 0,-8.84694 -3.44047,0 m 3.44047,-10.96037 c -0.32768,-0.0655 -0.85194,-0.11466 -1.57279,-0.14745 -0.68811,-0.0655 -1.52365,-0.0983 -2.50663,-0.0983 -1.6711,2e-5 -3.01452,0.34406 -4.03027,1.03214 -1.01577,0.68811 -1.52365,1.7694 -1.52364,3.24387 -10e-6,1.47451 0.52426,2.49026 1.57279,3.04728 1.04852,0.55704 2.40832,0.83556 4.07942,0.83554 l 3.98112,0 0,-7.91309"
           style=""
           id="path3042" />
        <path
           d="m 685.79832,835.12099 c -10e-6,0.98301 -0.0328,2.03154 -0.0983,3.14558 -0.0328,1.0813 -0.1147,2.17898 -0.24575,3.29302 -0.0983,1.08131 -0.24576,2.1626 -0.44235,3.24388 -0.19661,1.04853 -0.45874,2.03152 -0.78639,2.94898 -0.65534,1.86769 -1.65472,3.47324 -2.99813,4.81666 -1.34343,1.34342 -3.26026,2.1462 -5.75051,2.40833 l -0.58979,-3.44047 c 1.44172,-0.26213 2.57216,-0.78639 3.39132,-1.57279 0.85192,-0.81916 1.52363,-1.80215 2.01514,-2.94898 0.42595,-0.98298 0.73723,-2.09704 0.93384,-3.34217 0.22936,-1.24512 0.39319,-2.55577 0.4915,-3.93197 0.0983,-1.37618 0.14744,-2.75237 0.14744,-4.12857 0,-1.37617 0,-2.67044 0,-3.88282 l 13.467,0 0,22.80543 -4.07942,0 0,-19.41411 -5.45561,0"
           style=""
           id="path3044" />
        <path
           d="m 711.30699,851.68442 c 1.90044,0 3.37492,-0.32766 4.42347,-0.983 1.0485,-0.68809 1.57277,-1.78576 1.57278,-3.29302 -10e-6,-0.72085 -0.16385,-1.34342 -0.49149,-1.86769 -0.29492,-0.52425 -0.72088,-0.95021 -1.27789,-1.27789 -0.52428,-0.36042 -1.16323,-0.62255 -1.91684,-0.78639 -0.72087,-0.16382 -1.49088,-0.24574 -2.31003,-0.24575 -0.85194,10e-6 -1.73663,0.0328 -2.65408,0.0983 -0.8847,0.0328 -1.63833,0.13108 -2.26088,0.2949 l 0,7.81479 c 0.39319,0.0655 1.08128,0.13107 2.06428,0.1966 1.01575,0.0328 1.96597,0.0492 2.85068,0.0492 m -8.99438,-19.95475 4.07942,0 0,8.69948 c 0.52425,-0.0983 1.31064,-0.19658 2.35918,-0.2949 1.04851,-0.13105 2.04789,-0.19658 2.99813,-0.1966 1.31064,2e-5 2.55576,0.14747 3.73537,0.44235 1.17957,0.26215 2.21171,0.68811 3.09642,1.27789 0.88468,0.58981 1.57277,1.35982 2.06429,2.31003 0.52424,0.95024 0.78637,2.08068 0.78639,3.39133 -2e-5,2.75238 -0.95024,4.71837 -2.85068,5.89795 -1.8677,1.1796 -4.37433,1.76939 -7.51989,1.76939 -1.54003,0 -3.0309,-0.0819 -4.47262,-0.24575 -1.40896,-0.13106 -2.8343,-0.37681 -4.27601,-0.73724 l 0,-22.31393"
           style=""
           id="path3046" />
        <path
           d="m 744.48299,854.5351 -4.07942,0 0,-10.07568 -9.43673,0 0,10.07568 -4.07942,0 0,-22.80543 4.07942,0 0,9.28928 9.43673,0 0,-9.28928 4.07942,0 0,22.80543"
           style=""
           id="path3048" />
        <path
           d="m 756.81954,843.23068 c -0.52427,10e-6 -1.03215,0.0328 -1.52363,0.0983 -0.45874,0.0328 -0.8847,0.13108 -1.27789,0.2949 l 0,7.81479 c 0.26212,0.0655 0.6717,0.13107 1.22874,0.1966 0.55702,0.0328 1.04851,0.0492 1.47448,0.0492 1.08129,0 1.9496,-0.32766 2.60494,-0.983 0.68808,-0.68809 1.03213,-1.78576 1.03214,-3.29302 -1e-5,-1.47448 -0.37683,-2.53939 -1.13044,-3.19473 -0.75364,-0.65531 -1.55642,-0.98298 -2.40834,-0.98299 m -6.6352,-11.50101 3.83368,0 0,8.69948 c 0.36042,-0.0983 0.83553,-0.19658 1.42533,-0.2949 0.62256,-0.13105 1.2615,-0.19658 1.91684,-0.1966 0.91745,2e-5 1.78576,0.14747 2.60493,0.44235 0.85191,0.26215 1.58916,0.68811 2.21173,1.27789 0.65532,0.58981 1.1632,1.35982 1.52364,2.31003 0.39318,0.95024 0.58978,2.08068 0.5898,3.39133 -2e-5,2.75238 -0.72088,4.71837 -2.16259,5.89795 -1.40896,1.1796 -3.24388,1.76939 -5.50475,1.76939 -1.14684,0 -2.24451,-0.0819 -3.29303,-0.24575 -1.01576,-0.13106 -2.06429,-0.37681 -3.14558,-0.73724 l 0,-22.31393 m 20.15135,22.80543 -3.83367,0 0,-22.80543 3.83367,0 0,22.80543"
           style=""
           id="path3050" />
        <path
           d="m 786.11272,845.68816 c -0.45874,10e-6 -0.90109,10e-6 -1.32704,0 -0.39321,-0.0328 -0.77002,-0.0655 -1.13044,-0.0983 -0.95024,1.40897 -1.85131,2.91622 -2.70323,4.52177 -0.85193,1.57279 -1.62194,3.04728 -2.31003,4.42347 l -4.12857,0 c 0.36043,-0.85193 0.77001,-1.72024 1.22874,-2.60494 0.45873,-0.91745 0.93384,-1.78576 1.42534,-2.60493 0.49149,-0.85192 0.98299,-1.65469 1.47449,-2.40833 0.49149,-0.78638 0.9666,-1.47448 1.42534,-2.06428 -1.63833,-0.58979 -2.75239,-1.42533 -3.34218,-2.50663 -0.55703,-1.11405 -0.83554,-2.29364 -0.83554,-3.53878 0,-1.27787 0.22936,-2.39193 0.68809,-3.34217 0.4915,-0.95021 1.16321,-1.7366 2.01514,-2.35918 0.85192,-0.65531 1.85129,-1.14681 2.99813,-1.47449 1.17958,-0.32764 2.45747,-0.49148 3.83367,-0.4915 1.9332,2e-5 3.55514,0.0819 4.86581,0.24575 1.31064,0.16385 2.4247,0.37684 3.34218,0.63894 l 0,22.51054 -4.07942,0 0,-8.84694 -3.44048,0 m 3.44048,-10.96037 c -0.32768,-0.0655 -0.85195,-0.11466 -1.57279,-0.14745 -0.68811,-0.0655 -1.52365,-0.0983 -2.50663,-0.0983 -1.6711,2e-5 -3.01452,0.34406 -4.03027,1.03214 -1.01577,0.68811 -1.52365,1.7694 -1.52364,3.24387 -10e-6,1.47451 0.52425,2.49026 1.57279,3.04728 1.04851,0.55704 2.40832,0.83556 4.07942,0.83554 l 3.98112,0 0,-7.91309"
           style=""
           id="path3052" />
      </g>
      <g
         style="font-size:122.77687836px;font-style:normal;font-variant:normal;font-weight:normal;font-stretch:normal;line-height:125%;letter-spacing:0px;word-spacing:0px;opacity:0.7;fill:#ffffff;fill-opacity:1;stroke:none;font-family:Ubuntu Mono;-inkscape-font-specification:Ubuntu Mono"
         id="text3911">
        <path
           d="m 560.33622,921.78418 0,-56.96847 40.8847,0 0,8.4716 -30.81699,0 0,48.49687 -10.06771,0"
           style=""
           id="path3055" />
        <path
           d="m 634.2479,855.97577 c -2.12815,7e-5 -3.9698,-0.73659 -5.52496,-2.20998 -1.55519,-1.47325 -2.33277,-3.47861 -2.33276,-6.01607 -10e-6,-2.53731 0.77757,-4.54266 2.33276,-6.01607 1.55516,-1.47324 3.39681,-2.2099 5.52496,-2.20998 2.20996,8e-5 4.05161,0.73674 5.52496,2.20998 1.55514,1.47341 2.33273,3.47876 2.33276,6.01607 -3e-5,2.53746 -0.77762,4.54282 -2.33276,6.01607 -1.47335,1.47339 -3.315,2.21005 -5.52496,2.20998 m -2.57831,17.31154 -16.4521,0 0,-8.4716 26.5198,0 0,34.99141 c -3e-5,5.64775 0.77756,9.45383 2.33276,11.41825 1.55514,1.88259 3.8879,2.82387 6.99829,2.82387 2.37364,0 4.54269,-0.28648 6.50717,-0.85944 2.04623,-0.57295 3.64233,-1.18684 4.7883,-1.84165 l 1.47332,8.59438 c -0.49116,0.24555 -1.1869,0.57296 -2.08721,0.98221 -0.90041,0.32741 -1.96448,0.65481 -3.19219,0.98222 -1.14597,0.3274 -2.45559,0.61388 -3.92886,0.85943 -1.39152,0.24556 -2.86484,0.36833 -4.41997,0.36834 -3.6015,-10e-6 -6.58906,-0.49111 -8.96271,-1.47333 -2.37372,-0.98221 -4.29722,-2.45553 -5.77052,-4.41996 -1.39149,-1.96443 -2.37371,-4.37904 -2.94664,-7.24384 -0.57298,-2.94663 -0.85946,-6.34345 -0.85944,-10.19048 l 0,-26.51981"
           style=""
           id="path3057" />
        <path
           d="m 699.19687,890.47608 c 2.20995,1.63705 4.70642,3.72426 7.48939,6.26162 2.7829,2.45556 5.52492,5.11572 8.22605,7.98049 2.7829,2.86481 5.40213,5.81145 7.85772,8.83994 2.45549,2.94665 4.41991,5.68866 5.89329,8.22605 l -12.03213,0 c -1.55522,-2.53739 -3.47872,-5.1157 -5.77051,-7.73494 -2.29188,-2.70108 -4.74741,-5.2794 -7.36662,-7.73495 -2.53742,-2.45552 -5.11573,-4.70642 -7.73494,-6.75273 -2.53741,-2.04625 -4.82925,-3.76513 -6.87551,-5.15662 l 0,27.37924 -10.19048,0 0,-56.96847 10.19048,0 0,23.81871 c 4.5018,-3.92882 9.00361,-7.81675 13.50546,-11.6638 4.50178,-3.92881 8.55342,-7.98045 12.15491,-12.15491 l 11.90936,0 c -3.51966,4.17446 -7.77592,8.47165 -12.7688,12.89157 -4.91111,4.42001 -9.74033,8.67627 -14.48767,12.7688"
           style=""
           id="path3059" />
        <path
           d="m 757.02478,855.97577 c -2.12816,7e-5 -3.96981,-0.73659 -5.52496,-2.20998 -1.55519,-1.47325 -2.33278,-3.47861 -2.33276,-6.01607 -2e-5,-2.53731 0.77757,-4.54266 2.33276,-6.01607 1.55515,-1.47324 3.3968,-2.2099 5.52496,-2.20998 2.20995,8e-5 4.05161,0.73674 5.52496,2.20998 1.55514,1.47341 2.33272,3.47876 2.33276,6.01607 -4e-5,2.53746 -0.77762,4.54282 -2.33276,6.01607 -1.47335,1.47339 -3.31501,2.21005 -5.52496,2.20998 m -2.57832,17.31154 -16.4521,0 0,-8.4716 26.51981,0 0,34.99141 c -4e-5,5.64775 0.77755,9.45383 2.33276,11.41825 1.55514,1.88259 3.88789,2.82387 6.99828,2.82387 2.37364,0 4.5427,-0.28648 6.50717,-0.85944 2.04624,-0.57295 3.64233,-1.18684 4.7883,-1.84165 l 1.47333,8.59438 c -0.49117,0.24555 -1.1869,0.57296 -2.08721,0.98221 -0.90042,0.32741 -1.96448,0.65481 -3.1922,0.98222 -1.14597,0.3274 -2.45559,0.61388 -3.92886,0.85943 -1.39152,0.24556 -2.86484,0.36833 -4.41997,0.36834 -3.60149,-10e-6 -6.58906,-0.49111 -8.96271,-1.47333 -2.37372,-0.98221 -4.29722,-2.45553 -5.77051,-4.41996 -1.3915,-1.96443 -2.37371,-4.37904 -2.94665,-7.24384 -0.57298,-2.94663 -0.85946,-6.34345 -0.85944,-10.19048 l 0,-26.51981"
           style=""
           id="path3061" />
      </g>
    </g>
  </g>
</svg>
